<?xml version="1.0" encoding="utf-8"?>
<!-- Generator: Adobe Illustrator 24.0.0, SVG Export Plug-In . SVG Version: 6.00 Build 0)  -->
<svg version="1.1" id="Layer_1" xmlns="http://www.w3.org/2000/svg" xmlns:xlink="http://www.w3.org/1999/xlink" x="0px" y="0px"
	 viewBox="0 0 228.3 118" enable-background="new 0 0 228.3 118" xml:space="preserve">
<path fill="#70B644" d="M142,108.3c-1.9,5.1-6.6,8.6-12,8.7c-18.1,0.5-53.8,3-50.1-2.2c6.5-9,12.5-15,17.1-19.5
	c8.9-8.8,20.5-23.7,30-25.9c10.1-2.4,23-1.3,33.3-1.8c-1.8,2.6-3,5.4-4.3,8.2c-2.1,4.6-4.2,9.2-6.2,13.9
	C147.1,95.7,144.4,101.9,142,108.3 M79,110.5c3.9-5.2,8.1-10.3,12.5-15.1c4.8-5.2,9.7-10.3,14.8-15.1c2.8-2.7,5.6-5.5,8.7-8
	c-27.3,5.2-53.5,14.5-75.4,30.2c-6.2,8.3,6.6,12.3,27,13.9c4.7,0.4,9.2-1.8,12-5.6C78.8,110.7,78.9,110.6,79,110.5 M203.4,70.4
	c0.1-3.7-3-3.4-5-3.5c-6.2-0.2-12.4-0.2-18.5-0.1c-4.2,0-10.1-0.7-13.9,1.1c-2.8,1.4-4.6,6.9-6.8,11c-2.4,4.4-9.3,22.7-11.8,27.9
	c-1.9,4.1-0.7,8.5,3.8,8.3c17.2-0.7,37.1-0.6,38-0.7c4.5-0.2,8.8-3.7,9.3-8.2C198.8,102.2,203.2,78.2,203.4,70.4 M225.7,67.8
	c-2.9-0.4-5.9-0.7-8.8-0.8c-2.6,0-5.1,0.1-7.7,0.1c-0.1,9.6-2.6,19.2-3.8,28.7c-0.4,3.7-1.1,7.3-1.8,10.9c-0.7,3.3,2.5,6.1,5.6,5
	c14.4-4.9,14.2-15.6,17.2-27C229.3,73.9,228.8,70,225.7,67.8"/>
<path fill="#8EC7A6" d="M6.8,89.6c1.7-4.1,4,1.6,7,0.7s3.8-2.1,7.4-2.1c3.7-0.1,3.4,1.2,6.5,0.4c3.2-0.8,5-1.6,9-1.4
	c3.9,0.2,4.1-0.7,5.7,0.1c1.6,0.8,4.4,0.7,4.1,1.6c-0.3,0.9-19.5,11.3-25.2,18C15.7,113.6,4.1,96.2,6.8,89.6"/>
<path fill="#245C2E" d="M48.8,88.1c-3,0.3-5.5-2-8.5-2.3c-2-0.2-3.9,0.2-5.8,0.6c-3.1,0.7-5.4,1.7-8.4,0.6c-1.8-0.6-3.4-0.7-5.2-0.1
	c-1,0.3-1.8,0.8-2.7,1.3c-1.1,0.6-1.5,0.9-2.4,0.6c-0.2-0.1-1.2-0.9-1.5-1c-0.7-0.3-1.6-0.4-2.4-0.5c-2-0.1-4.2,0.5-6.1,0.8
	c-2.2,0.4-4.4,0.4-5.7,2.1c-0.3,0.4,0,0.8,0.3,1.1c3.7,2.3,9.3-2.6,12.9,0c1.1,0.8,1.6,1.4,3.1,1.2c2.3-0.3,3.9-2.2,6.1-2.6
	s4.2,1,6.5,0.7s4.5-1.3,6.7-2c3.1-1,5.5-0.8,8.6,0.1c1.7,0.5,3,0.6,4.5-0.3C49,88.2,48.9,88,48.8,88.1"/>
<g>
	<path fill="#11B3E8" d="M136.3,47.6c-0.9-2.3-1.9-4.5-3.2-6.5l7.1-7.2c-0.1-1-0.3-1.9-0.3-2.9c0-0.2,0-0.5,0-0.7l-7.7-8.9l-9.8,7.3
		c-1.9-1.5-3.9-2.9-6-4l3-11.8l-13.8-4.7l-4.9,11.2c-2.4-0.4-4.8-0.5-7.2-0.5L90.2,7L75.9,9.7l1.4,12.2c-2.3,0.9-4.4,2-6.5,3.2
		l-8.7-8.5l-11,9.6l7.3,9.8c-1.5,1.9-2.9,3.9-4,6l-11.8-3l-4.7,13.8l11,4.7c-0.4,2.4-0.5,4.8-0.5,7.2L36.6,68l2.8,14.3l12.1-1.4
		c0.5,1.4,1.2,2.7,1.8,4.1c2.9-1.4,6-2.9,9.3-4.3c-1.6-3-2.8-6.3-3.4-9.7c-3.7-19.2,8.8-37.8,28-41.5c9.3-1.8,18.7,0.1,26.5,5.4
		s13.2,13.3,15,22.6c0.3,1.6,0.5,3.2,0.6,4.9c2.1-0.2,4.1-0.4,6.2-0.6c1.7-0.1,3.3-0.3,4.8-0.4c-0.1-0.4-0.2-0.8-0.1-1.2
		c0.2-4.4,0.4-8.8,0.4-13.1L136.3,47.6z"/>
	<path fill="#F9B717" d="M123.1,58.6c-1.5-7.8-6-14.5-12.5-18.9c-5.2-3.5-11.2-5.2-17.3-5.1c-1.6,0-3.3,0.2-4.9,0.5
		c-16.2,3.2-26.7,18.8-23.6,34.8c0.6,3,1.6,5.9,3.1,8.5c15.1-6.2,33.7-12.1,54.5-15.2c0.4-0.1,0.8-0.2,1.2-0.3
		C123.5,61.5,123.3,60.1,123.1,58.6z"/>
</g>
<path fill="#03455C" d="M170.5,53.4h-2.1c0-0.2-0.1-0.3-0.1-0.5l0,0v-1.7h2.3L170.5,53.4L170.5,53.4z M191.7,46.5v2.3h2.3l0,0l0,0
	v-2.3l0,0H191.7z M219.9,53.4h2.3v-2.3h-2.3V53.4z M178.6,40.3c0,0.5,0.4,0.9,0.8,0.9c0,0.4,0.3,0.8,0.8,0.8h0.1
	c0.4,0,0.8-0.3,0.9-0.8c0.1-0.5-0.1-0.9-0.4-1.3c-0.3-0.4-0.8-0.6-1.3-0.6C179,39.4,178.6,39.8,178.6,40.3z M226.8,52.8
	c-0.1,1.1-0.5,2.1-1.2,3c-0.6,0.8-1.3,1.4-2.2,1.8c-0.5,0.3-1.1,0.4-1.7,0.5h-1.9c0,0.1,0,0.3,0,0.4c0,0.2,0.1,0.2,0.2,0.2
	c0.7,0,1.4,0,2.1,0v2.2h-7v-2.3c0.1,0,0.1,0,0.2,0c0.7,0,1.3,0,2,0c0.2,0,0.2,0,0.2-0.2c0-0.1,0-0.3,0-0.4h-7.1c0,0.1,0,0.2,0,0.4
	s0,0.2,0.2,0.2c0.6,0,1.2,0,1.9,0h0.2v2.3h-7v-2.3c0.1,0,0.1,0,0.2,0c0.7,0,1.3,0,2,0c0.1,0,0.2,0,0.2-0.2c0-0.1,0-0.3,0-0.4h-4.8
	v2.9c-0.1,0-0.2,0-0.3,0c-2.8,0-5.5,0-8.3,0h-7.5c-0.1,0-0.2,0-0.3,0V58h-4.8c0,0.1,0,0.3,0,0.4c0,0.1,0,0.2,0.2,0.2
	c0.7,0,1.3,0,2,0c0.1,0,0.1,0,0.2,0v2.3h-7v-2.3h0.2c0.6,0,1.2,0,1.9,0c0.2,0,0.2-0.1,0.2-0.2c0-0.1,0-0.2,0-0.4h-3.3l0,0h-6.6v-2.2
	c5.6,0,11.3,0,16.9,0c0.2,0,0.3,0,0.3-0.1v-2.2c0-0.1-0.1-0.1-0.2-0.1c-4.2,0-8.4,0-12.6,0h-1.4v-2.3h0.3h13.6c0.2,0,0.2,0,0.3-0.1
	v-2.1c0-0.1-0.1-0.1-0.2-0.1c-5.7,0-14.9,0-20.5,0l-0.5-2.3h7.4l-1.7-3.4c-0.2-0.5-0.4-0.9-0.5-1.4c-0.2-1.2,0.2-2.4,0.9-3.2
	c0.8-0.9,2-1.5,3.2-1.5c0.4,0,0.7,0.1,1.1,0.2c-0.3-1-1-1.8-1.8-2.2c-0.2-0.1-0.4-0.3-0.4-0.5c-0.1-0.2-0.1-0.5,0-0.7
	c0.2-0.4,0.8-0.6,1.2-0.4c1,0.5,1.8,1.3,2.3,2.3c0.5-0.7,1.3-1.1,2.2-1.1h1.9c0.5,0,0.9,0.4,0.9,0.9c0,0.8-0.3,1.6-0.9,2.2
	c0.4,0.2,0.7,0.5,1,0.8c0.8,0.9,1.1,2.1,0.9,3.2c-0.1,0.5-0.5,0.8-1,0.7c-0.2,0-0.4-0.2-0.6-0.3c-0.1-0.2-0.2-0.4-0.2-0.7
	c0.1-0.7-0.1-1.3-0.5-1.8c-0.5-0.5-1.1-0.9-1.8-0.9c-0.4,0-0.8,0.1-1.1,0.4c-0.3,0.2-0.7,0.3-1,0.4h-0.1c-0.3,0-0.7-0.1-1-0.3
	s-0.7-0.4-1.1-0.4c-0.7,0-1.4,0.3-1.8,0.9c-0.4,0.5-0.6,1.2-0.5,1.8c0,0.3,0.1,0.6,0.3,0.9l2.1,4.2h1l0.4-0.5c0-0.1,0.1-0.1,0.1-0.1
	c0.4-0.3,1-0.2,1.3,0.1l0.4,0.6h1l1.8-3.5c0.2-0.4,0.8-0.6,1.2-0.4c0.4,0.2,0.6,0.8,0.4,1.2l-1.4,2.7h4.5l0,0c0.3,0,0.6,0,0.9,0
	c0.2,0,0.2,0,0.3-0.1v-15l0,0v-8.9h-12.5l0,0c-0.7,0-1.4,0-2.1,0h-2.9c-0.6,0-1.3,0-1.9,0v-0.4v0.4h-0.1h-3.9l0,0
	c-0.3,0-0.6,0-0.9,0h-3.4v1l0,0v2v4.7v9.1l0,0v22.4h-2.1v-22l0,0c0-6.7,0-13.3,0-20v-0.2l0.1-0.1c1.7-1.3,3.3-2.6,5-4l0.9-0.7
	c0.1-0.1,0.2-0.2,0.4-0.3l0.4-0.4l-0.1-0.8l-0.4-0.1h-0.1c-0.1,0-0.2,0-0.4,0c-0.7,0-1.3,0-2,0h-0.1c-1,0-2,0-2.9,0h-0.3
	c-0.3,0-0.7,0-1,0c-0.4,0-0.7,0-1.1,0h-0.1c-1.3,0-2.6,0-3.9,0h-0.2c-1.3,0-2.7,0-4,0h-0.1c-0.3,0-0.7,0-1,0s-0.6,0-0.9,0
	c-0.4,0-0.9,0-1.3,0h-1.8c-0.2,0-0.5,0-0.8,0.2c0,0-0.2,0.3-0.2,0.4v47.8h-2.1V13.4l0,0c0-0.9,0-1.8,0-2.7v-0.2l0.1-0.1
	c1.4-1.1,2.9-2.3,4.3-3.4c0.8-0.6,1.6-1.3,2.4-1.9l2.5-2c1.3-1,2.5-2,3.8-3l0.1-0.1h0.1c0.9,0,1.8,0,2.8,0c0.9,0,1.8,0,2.7,0h0.1
	l0.1,0.1c0.7,0.5,1.3,1,2,1.6l5.9,4.7c1,0.8,2.1,1.7,3.1,2.5c0.4,0.3,0.7,0.4,1.1,0.4c0.9,0,1.8,0,2.7,0h0.2c0.9,0,1.7,0,2.6,0
	c0.1,0,0.1,0,0.2,0h0.1h0.1c0.2,0.1,0.3,0.2,0.4,0.3l2.4,1.9c1.4,1.1,2.8,2.3,4.3,3.4c1.8,1.4,3.8,3.1,5.9,4.7l0.1,0.1v6
	c0-0.1,0-0.1,0-0.2l0,0h11.6c0,0.1,0,0.2,0,0.3c0,1.4,0,2.8,0,4.2c0,0.2,0,0.2,0.2,0.2c0.6,0,1.2,0,1.9,0h0.2l0,0l0,0v16.2
	c0,0.1,0.1,0.1,0.3,0.1c0.6,0,1.2,0,1.9,0c0.2,0,0.3-0.1,0.3-0.3c0-2.9,0-5.9,0-8.8v-0.3h11.8v0.3c0,2.9,0,5.8,0,8.7
	c0,0.4,0,0.3,0.3,0.3c1.2,0,2.4,0,3.6,0c0.9,0,1.7,0.3,2.5,0.7c1.1,0.6,2,1.5,2.5,2.7c0.2,0.5,0.4,0.9,0.4,1.5
	C226.8,51.9,226.9,52.3,226.8,52.8z M178.9,36.9h0.3c0.5,0,1-0.3,1.3-0.7h-0.7C179.4,36.2,179,36.5,178.9,36.9z M191.7,30
	c0,0.2,0.1,0.2,0.2,0.2c1.1,0,2.3,0,3.4,0c1.1,0,2.1,0,3.2,0c0.2,0,0.2,0,0.2-0.2c0-0.7,0-1.3,0-2c0-0.2-0.1-0.2-0.2-0.2
	c-1,0-2.1,0-3.1,0h-0.2l0,0H195c-1,0-2,0-3.1,0c-0.2,0-0.2,0-0.2,0.2C191.7,28.6,191.7,29.3,191.7,30z M201,32.7
	c0-0.3,0-0.3-0.3-0.3h-11.2c-0.3,0-0.3,0-0.3,0.3v25v0.6c0,0.3,0,0.3,0.3,0.3h11.1c0.3,0,0.3,0,0.3-0.3v-0.6L201,32.7L201,32.7z
	 M208,46.3c0,0.2,0,0.2,0.2,0.2c2.3,0,4.5,0,6.8,0c0.1,0,0.2,0,0.2-0.2c0-2.2,0-4.4,0-6.7c0-0.1,0-0.2-0.2-0.2c-0.7,0-1.4,0-2.1,0
	c-0.2,0-0.2,0-0.2,0.2c0,0.6,0,1.3,0,1.9v0.2h-2.3v-0.2c0-0.6,0-1.3,0-1.9c0-0.2,0-0.2-0.2-0.2c-0.7,0-1.4,0-2.1,0
	c-0.2,0-0.2,0.1-0.2,0.2C208,41.9,208,44.1,208,46.3z M224.5,52.5c0-0.8-0.2-1.6-0.7-2.3c-0.7-0.9-1.6-1.4-2.7-1.4
	c-5.9,0-11.7,0-17.6,0c-0.1,0-0.2,0-0.2,0.1v2.2c0,0.1,0.1,0.1,0.3,0.1h13.6h0.3v2.3h-1.3c-4.2,0-8.4,0-12.6,0c-0.1,0-0.2,0-0.2,0.1
	v2.2c0,0.1,0.1,0.1,0.3,0.1c5.8,0,11.5,0,17.3,0c0.5,0,0.9-0.1,1.3-0.2C223.7,55.1,224.5,53.9,224.5,52.5z M196.4,46.5v2.3l0,0l0,0
	h2.3v-2.3H196.4L196.4,46.5z M191.7,34.8h6.9v9.3l0,0h-6.9V34.8z M194,41.6C194,41.7,194,41.7,194,41.6L194,41.6L194,41.6l0.1,0.1
	c0.3,0,0.7,0,1,0s0.7,0,1,0h0.1l0,0l0,0v-0.1c0-1.4,0-2.9,0-4.3c0-0.2-0.1-0.2-0.2-0.2c-0.3,0-0.6,0-1,0c-0.3,0-0.6,0-1,0
	c-0.2,0-0.2,0-0.2,0.2C194,38.8,194,40.2,194,41.6z"/>
</svg>
