<?xml version="1.0" encoding="utf-8"?>
<!-- Generator: Adobe Illustrator 24.0.0, SVG Export Plug-In . SVG Version: 6.00 Build 0)  -->
<svg version="1.1" id="Layer_1" xmlns="http://www.w3.org/2000/svg" xmlns:xlink="http://www.w3.org/1999/xlink" x="0px" y="0px"
	 viewBox="0 0 30.2 28.1" style="enable-background:new 0 0 30.2 28.1;" xml:space="preserve">
<style type="text/css">
	.st0{fill:#FFFFFF;}
</style>
<g>
	<path class="st0" d="M25.2,22.6H5c-1.4,0-2.6,1.2-2.6,2.6s1.2,2.6,2.6,2.6h20.3c1.4,0,2.6-1.2,2.6-2.6S26.7,22.6,25.2,22.6z
		 M25.2,26.8H5c-0.9,0-1.6-0.7-1.6-1.6s0.7-1.6,1.6-1.6h20.3c0.9,0,1.6,0.7,1.6,1.6S26.1,26.8,25.2,26.8z"/>
	<path class="st0" d="M12.6,10.7l0.7,0.7l0.7-0.7l-0.5-0.5V9.7h3.2v0.6l-0.5,0.5l0.7,0.7l0.7-0.7V9.5l1.7-1.3V5.2l-1.7-1.3V0.4h-5.1
		v3.5l-1.7,1.3v2.9l1.7,1.3V10.7z M11.8,7.7v-2l1.7-1.3V1.3h3.2v3.1l1.7,1.3v2L17,8.8h-3.9L11.8,7.7z"/>
	<path class="st0" d="M4.8,20.4c0.2,0.1,0.4,0.1,0.6,0.1c0.6,0,1.1-0.2,1.6-0.5c0.8-0.3,1.3-0.5,1.8-0.2v1.8h0.9v-4l-0.1-0.1
		c-0.7-0.9-1.1-1.9-1.2-3.1v-1.6H7.5v1.7l0,0C7.6,15.8,8.1,17,8.8,18v0.9c-0.8-0.2-1.6,0.1-2.2,0.4c-0.8,0.3-1.3,0.5-1.8,0.2V18
		c0.7-1,1.2-2.2,1.3-3.5l0-1.7H5.1v1.6c-0.1,1.2-0.5,2.2-1.2,3.1l-0.1,0.1v4h0.9V20.4z"/>
	<path class="st0" d="M18.1,21.6v-4L18,17.5c-0.7-0.9-1.1-1.9-1.2-3.1v-1.2h0.5v-0.9h-0.5h-3.3H13v0.9h0.5v1.2
		c-0.1,1.2-0.5,2.2-1.2,3.1l-0.1,0.1v4h0.9v-1.2c0.2,0.1,0.4,0.1,0.6,0.1c0.6,0,1.1-0.2,1.6-0.5c0.8-0.3,1.3-0.5,1.8-0.2v1.8H18.1z
		 M14.9,19.2c-0.8,0.3-1.3,0.5-1.8,0.2V18c0.7-1,1.2-2.2,1.3-3.5l0-1.2h1.4v1.2l0,0c0.1,1.3,0.6,2.5,1.3,3.5v0.9
		C16.3,18.6,15.6,18.9,14.9,19.2z"/>
	<path class="st0" d="M21.4,20.4c0.2,0.1,0.4,0.1,0.6,0.1c0.6,0,1.1-0.2,1.6-0.5c0.8-0.3,1.3-0.5,1.8-0.2v1.8h0.9v-4l-0.1-0.1
		c-0.7-0.9-1.1-1.9-1.2-3.1v-1.2h0.5v-0.9h-0.5h-3.3h-0.5v0.9h0.5v1.2c-0.1,1.2-0.5,2.2-1.2,3.1l-0.1,0.1v4h0.9V20.4z M22.7,14.5
		l0-1.2h1.4v1.2l0,0c0.1,1.3,0.6,2.5,1.3,3.5v0.9c-0.8-0.2-1.6,0.1-2.2,0.4c-0.8,0.3-1.3,0.5-1.8,0.2V18
		C22.1,17,22.6,15.8,22.7,14.5z"/>
	<path class="st0" d="M5,24.4c-0.2,0-0.4,0.1-0.5,0.2l0,0c-0.3,0.3-0.3,0.8,0,1.1c0.1,0.1,0.3,0.2,0.5,0.2c0.2,0,0.4-0.1,0.5-0.2
		c0.1-0.1,0.2-0.3,0.2-0.5s-0.1-0.4-0.2-0.5C5.4,24.5,5.2,24.4,5,24.4z M4.8,25.3c-0.1-0.1-0.1-0.2,0-0.3c0,0,0,0,0,0l0.3,0.3
		C5,25.4,4.9,25.4,4.8,25.3z M5.1,25.3L4.8,25C4.9,25,5,25,5.1,25C5.2,25.1,5.2,25.2,5.1,25.3z"/>
	<path class="st0" d="M25.3,24.4c-0.2,0-0.4,0.1-0.5,0.2l0,0c-0.3,0.3-0.3,0.8,0,1.1c0.1,0.1,0.3,0.2,0.5,0.2c0.2,0,0.4-0.1,0.5-0.2
		c0.3-0.3,0.3-0.8,0-1.1C25.7,24.5,25.5,24.4,25.3,24.4z M25.1,25.3c0,0-0.1-0.1-0.1-0.1c0,0,0-0.1,0.1-0.1c0,0,0,0,0,0l0.3,0.3
		C25.3,25.4,25.2,25.4,25.1,25.3z M25.4,25.3L25.1,25c0.1-0.1,0.2-0.1,0.3,0C25.5,25.1,25.5,25.2,25.4,25.3z"/>
	<rect x="12.4" y="5.9" class="st0" width="1" height="0.9"/>
	<rect x="13.9" y="5.9" class="st0" width="1" height="0.9"/>
	<rect x="15.4" y="5.9" class="st0" width="1" height="0.9"/>
	<rect x="16.8" y="5.9" class="st0" width="1" height="0.9"/>
</g>
</svg>
