<?xml version="1.0" encoding="utf-8"?>
<!-- Generator: Adobe Illustrator 24.0.0, SVG Export Plug-In . SVG Version: 6.00 Build 0)  -->
<svg version="1.1" id="Layer_1" xmlns="http://www.w3.org/2000/svg" xmlns:xlink="http://www.w3.org/1999/xlink" x="0px" y="0px"
	 viewBox="0 0 30.2 28.1" enable-background="new 0 0 30.2 28.1" xml:space="preserve">
<path fill="#FFFFFF" d="M28.9,20.9v-4.8c0-0.3-0.3-0.6-0.6-0.6h-6c-0.3,0-0.6,0.3-0.6,0.6v4.7h-1.2v-4.7c0-0.3-0.3-0.6-0.6-0.6h-5.4
	l0-0.8c0,0,0,0,0,0c0,0,0,0,0,0c0-0.6-0.5-1.2-1.1-1.3c-0.1-0.8-0.3-1.5-0.7-2.1l2.2-6.3c0.2-0.1,0.4-0.2,0.6-0.3l7.6,2.4
	c0.2,0.3,0.4,0.6,0.6,0.9v1.4h-1.2c0,0,0,0,0,0c0,0,0,0,0,0c0,0,0,0,0,0c0,0,0,0,0,0c0,0,0,0,0,0c0,0,0,0,0,0c0,0,0,0,0,0
	c0,0,0,0,0,0c0,0-0.1,0-0.1,0c0,0,0,0,0,0c0,0,0,0,0,0c0,0,0,0,0,0c0,0,0,0,0,0c0,0-0.1,0-0.1,0.1c0,0,0,0,0,0c0,0,0,0,0,0
	c0,0,0,0,0,0c0,0,0,0,0,0c0,0,0,0,0,0c0,0,0,0,0,0c0,0,0,0,0,0c0,0,0,0,0,0l-0.8,2c0,0,0,0,0,0c0,0,0,0.1,0,0.1c0,0,0,0,0,0
	c0,0,0,0,0,0c0,0,0,0,0,0c0,0,0,0,0,0c0,0,0,0,0,0c0,0,0,0,0,0c0,0,0,0,0,0.1c0,0,0,0,0,0c0,0,0,0,0,0.1c0,0,0,0,0,0l0.7,2
	c0.1,0.3,0.3,0.4,0.6,0.4c0.1,0,0.1,0,0.2,0c0.3-0.1,0.5-0.4,0.4-0.8l-0.6-1.8l0.6-1.4h4.8l0.6,1.4l-0.6,1.8
	c-0.1,0.3,0.1,0.7,0.4,0.8c0.1,0,0.1,0,0.2,0c0.3,0,0.5-0.2,0.6-0.4l0.7-2c0-0.1,0-0.3,0-0.4l-0.8-2c0,0,0,0,0,0c0,0,0,0,0,0
	c0,0,0,0,0,0c0,0,0,0,0,0c0,0,0,0,0,0c0,0,0,0,0,0c0,0,0,0,0,0c0,0,0,0,0,0c0,0,0-0.1-0.1-0.1c0,0,0,0,0,0c0,0,0,0,0,0
	c0,0-0.1-0.1-0.2-0.1c0,0,0,0,0,0c0,0,0,0,0,0c0,0,0,0,0,0c0,0,0,0,0,0c0,0,0,0,0,0c0,0,0,0,0,0c0,0,0,0,0,0c0,0,0,0,0,0h-1.2V8
	c0.6-0.5,1-1.2,1-2c0-1.4-1.1-2.5-2.5-2.5c-0.5,0-1,0.2-1.4,0.4l-7.4-2.4C16.2,0.7,15.3,0,14.2,0c-1.4,0-2.5,1.1-2.5,2.5
	c0,0.3,0,0.6,0.1,0.8L7.8,8.7c-1.3,0.1-2.5,0.6-3.4,1.5c-0.9,0.9-1.4,2-1.5,3.2c-0.6,0.1-1,0.6-1,1.3v6.2H1.6
	c-0.9,0-1.6,0.7-1.6,1.6C0,23.3,0.7,24,1.6,24h4.9v3.5c0,0.3,0.3,0.6,0.6,0.6h2c0.3,0,0.6-0.3,0.6-0.6V24h10.9v3.5
	c0,0.3,0.3,0.6,0.6,0.6h2c0.3,0,0.6-0.3,0.6-0.6V24h4.7c0.9,0,1.6-0.7,1.6-1.6C30.2,21.7,29.6,21,28.9,20.9z M25.7,9.4h-0.8V8.5
	c0.1,0,0.3,0,0.4,0c0.1,0,0.2,0,0.3,0V9.4z M25.4,4.8c0.7,0,1.3,0.6,1.3,1.3c0,0.7-0.6,1.3-1.3,1.3c-0.7,0-1.3-0.6-1.3-1.3
	C24.1,5.3,24.6,4.8,25.4,4.8z M16.7,2.9L23.1,5c-0.1,0.2-0.2,0.5-0.2,0.8l-6.5-2.1C16.5,3.5,16.6,3.2,16.7,2.9z M16.4,16.7h0.8v0.8
	h-0.8V16.7z M14.4,16.7h0.8v1.4c0,0.3,0.3,0.6,0.6,0.6h2c0.3,0,0.6-0.3,0.6-0.6v-1.4h0.8v4.1h-4.8L14.4,16.7z M14.2,1.2
	c0.7,0,1.3,0.6,1.3,1.3c0,0.7-0.6,1.3-1.3,1.3s-1.3-0.6-1.3-1.3C12.9,1.8,13.5,1.2,14.2,1.2z M12.5,4.4c0.3,0.3,0.6,0.4,1,0.5
	l-1.8,5.2C11,9.5,10.2,9,9.2,8.8L12.5,4.4z M8.1,9.9c2.1,0,3.8,1.5,4,3.5H4C4.3,11.4,6,9.9,8.1,9.9z M8.5,26.9H7.7V24h0.8V26.9z
	 M9.1,22.8H1.6c-0.2,0-0.4-0.2-0.4-0.4c0-0.2,0.2-0.4,0.4-0.4h7.5c0,0.1,0,0.3,0,0.4C9,22.6,9.1,22.7,9.1,22.8z M5.9,20.8v-4.1h0.8
	v1.4c0,0.3,0.3,0.6,0.6,0.6h2c0.3,0,0.6-0.3,0.6-0.6v-1.4h0.8v4.1H5.9z M8,17.5v-0.8h0.8v0.8H8z M10.6,22.8c-0.2,0-0.4-0.2-0.4-0.4
	c0-0.2,0.2-0.4,0.4-0.4c0.2,0,0.4,0.2,0.4,0.4C11,22.6,10.8,22.8,10.6,22.8z M11.4,15.5h-6c-0.3,0-0.6,0.3-0.6,0.6v4.7H3v-6.2
	c0,0,0-0.1,0.1-0.1h10.1c0,0,0.1,0,0.1,0.1l0,6.2H12v-4.7C12,15.8,11.7,15.5,11.4,15.5z M18,22.8h-5.8c0-0.1,0-0.3,0-0.4
	c0-0.1,0-0.3,0-0.4h1.6h0H18c0,0.1,0,0.3,0,0.4C18,22.6,18,22.7,18,22.8z M19.6,22.8c-0.2,0-0.4-0.2-0.4-0.4c0-0.2,0.2-0.4,0.4-0.4
	c0.2,0,0.4,0.2,0.4,0.4C20,22.6,19.8,22.8,19.6,22.8z M24.9,16.7h0.8v0.8h-0.8V16.7z M22.9,16.7h0.8v1.4c0,0.3,0.3,0.6,0.6,0.6h2
	c0.3,0,0.6-0.3,0.6-0.6v-1.4h0.8v4.1h-4.8V16.7z M22.7,26.9h-0.8V24h0.8V26.9z M28.6,22.8h-7.4c0-0.1,0-0.3,0-0.4c0-0.1,0-0.3,0-0.4
	h7.4c0.2,0,0.4,0.2,0.4,0.4C28.9,22.6,28.8,22.8,28.6,22.8z"/>
</svg>
