<?xml version="1.0" encoding="utf-8"?>
<!-- Generator: Adobe Illustrator 24.0.0, SVG Export Plug-In . SVG Version: 6.00 Build 0)  -->
<svg version="1.1" id="Layer_1" xmlns="http://www.w3.org/2000/svg" xmlns:xlink="http://www.w3.org/1999/xlink" x="0px" y="0px"
	 viewBox="0 0 30.2 28.1" style="enable-background:new 0 0 30.2 28.1;" xml:space="preserve">
<style type="text/css">
	.st0{fill:#FFFFFF;}
</style>
<g>
	<path class="st0" d="M12.9,8.4c0,0.5,0.4,0.8,0.8,0.8h0.3v1H15V8.3h-1.2V7.1l-1.7-1.3V4.1h0.8h5h0.8v1.7L17,7.1v1.2h-1.2v1.9h0.9
		v-1h0.3c0.5,0,0.8-0.4,0.8-0.8V7.6l1.7-1.3V3.2h-1.7V0.7h-5v2.5h-1.7v3.1l1.7,1.3V8.4z M13.8,1.6H17v1.6h-3.1V1.6z"/>
	<path class="st0" d="M20.6,8h-1.7v0.9h1.7c1.6,0,2.9-1.3,2.9-2.9c0-1.2-0.6-2.1-1.1-2.8c-0.4-0.6-0.8-1.1-0.8-1.9V0.7h-0.9v0.6
		c0,1.1,0.5,1.7,0.9,2.4C22.1,4.4,22.6,5,22.6,6C22.6,7.1,21.7,8,20.6,8z"/>
	<path class="st0" d="M14.3,14.8c0.3,0.3,0.7,0.5,1.1,0.5c0.4,0,0.8-0.2,1.1-0.5c0.2-0.3,0.4-0.6,0.3-1v0c-0.1-0.6-0.8-1.9-1-2.2
		L15.4,11L15,11.7c-0.2,0.3-0.9,1.6-1,2.2C14,14.2,14.1,14.5,14.3,14.8z M15.4,12.8c0.3,0.5,0.5,0.9,0.5,1.1c0,0.1,0,0.2-0.1,0.2
		c-0.1,0.1-0.2,0.2-0.4,0.2c-0.1,0-0.3-0.1-0.4-0.2c-0.1-0.1-0.1-0.2-0.1-0.2C15,13.8,15.2,13.3,15.4,12.8z"/>
	<rect x="13.1" y="4.9" class="st0" width="0.9" height="0.9"/>
	<rect x="14.9" y="4.9" class="st0" width="0.9" height="0.9"/>
	<rect x="16.8" y="4.9" class="st0" width="0.9" height="0.9"/>
	<path class="st0" d="M26.2,21.8c-0.4-0.5-0.7-1-0.9-1.6h0.6v-0.9h-22v0.9h1.6c-0.2,0.6-0.5,1.1-0.9,1.6L4.5,22v4.5c0,0.6,0.4,1,1,1
		h4.7c0.6,0,1-0.4,1-1V22l-0.1-0.1c-0.4-0.5-0.7-1-0.9-1.6h2.9c-0.2,0.6-0.5,1.1-0.9,1.6L12.1,22v4.5c0,0.6,0.4,1,1,1h4.7
		c0.6,0,1-0.4,1-1V22l-0.1-0.1c-0.4-0.5-0.7-1-0.9-1.6h2.9c-0.2,0.6-0.5,1.1-0.9,1.6L19.7,22v4.5c0,0.6,0.4,1,1,1h4.7
		c0.6,0,1-0.4,1-1V22L26.2,21.8z M10.2,22.3v4.2c0,0,0,0.1-0.1,0.1H5.5c0,0-0.1,0-0.1-0.1v-4.2c0.5-0.6,0.8-1.3,1.1-2.1h2.7
		C9.4,21,9.8,21.7,10.2,22.3z M17.8,22.3v4.2c0,0,0,0.1-0.1,0.1h-4.7c0,0-0.1,0-0.1-0.1v-4.2c0.5-0.6,0.8-1.3,1.1-2.1h2.7
		C17,21,17.4,21.7,17.8,22.3z M25.4,26.4C25.4,26.5,25.4,26.5,25.4,26.4l-4.7,0.1c0,0-0.1,0-0.1-0.1v-4.2c0.5-0.6,0.8-1.3,1.1-2.1
		h2.7c0.3,0.7,0.6,1.4,1.1,2.1V26.4z"/>
	<path class="st0" d="M21.2,15.9v2.4c0,0.1,0,0.1,0,0.2l0.9,0.1c0-0.1,0-0.1,0-0.2l0-1.5h1.8v1.5l0,0c0,0.1,0,0.1,0,0.2l0.9-0.1
		c0-0.1,0-0.1,0-0.2v-2.4H21.2z"/>
	<path class="st0" d="M16.3,18.3c0,0.1,0,0.1,0,0.2l0.9-0.1c0-0.1,0-0.1,0-0.2v-2.4h-3.6v2.4c0,0.1,0,0.1,0,0.2l0.9,0.1
		c0-0.1,0-0.1,0-0.2l0-1.5h1.8L16.3,18.3L16.3,18.3z"/>
	<path class="st0" d="M6.9,18.3l0-1.5h1.8v1.5l0,0c0,0.1,0,0.1,0,0.2l0.9-0.1c0-0.1,0-0.1,0-0.2v-2.4H6v2.4c0,0.1,0,0.1,0,0.2
		l0.9,0.1C6.9,18.5,6.9,18.4,6.9,18.3z"/>
</g>
</svg>
