<?xml version="1.0" encoding="utf-8"?>
<!-- Generator: Adobe Illustrator 24.0.0, SVG Export Plug-In . SVG Version: 6.00 Build 0)  -->
<svg version="1.1" id="Layer_1" xmlns="http://www.w3.org/2000/svg" xmlns:xlink="http://www.w3.org/1999/xlink" x="0px" y="0px"
	 viewBox="0 0 30.2 28.1" style="enable-background:new 0 0 30.2 28.1;" xml:space="preserve">
<style type="text/css">
	.st0{fill:#FFFFFF;}
</style>
<g>
	<path class="st0" d="M23.9,6.5c-0.8-1.2-1.6-2.3-1.6-4V0.8h-1v1.7c0,2,0.9,3.4,1.7,4.6c0.7,1.1,1.4,2.1,1.4,3.4
		c0,1.4-1.2,2.6-2.6,2.6h-2v1h2c2,0,3.6-1.6,3.6-3.6C25.4,8.8,24.6,7.7,23.9,6.5z"/>
	<polygon class="st0" points="8.5,13.2 8.5,16.1 7.6,17 8.3,17.7 9.4,16.6 9.4,14.2 15.9,14.2 15.9,16.6 17.1,17.7 17.8,17 
		16.9,16.1 16.9,13.2 	"/>
	<path class="st0" d="M18.8,11.4l1-1V6.1h-3.6V0.8h-7v5.3H5.5v4.2l1,1v4l-1.8,1.8v5.7h1v-5.3l1.8-1.8v-3.5h10.3v3.5l1.8,1.8v4.8h-1
		v-3.2c0-0.5-0.4-0.9-0.9-0.9H7.7c-0.5,0-0.9,0.4-0.9,0.9v7.2c0,0.5,0.4,0.9,0.9,0.9h10.1c0.5,0,0.9-0.4,0.9-0.9v-3.1h2v-6.2
		l-1.8-1.8V11.4z M17.6,26.3H7.7v-7h9.9V26.3z M10.2,1.8h5.1v4.3h-5.1V1.8z M7.9,11.3L6.5,9.9V7.1h2.7h7h2.7v2.8l-1.4,1.4H7.9z"/>
	<rect x="7.5" y="8.2" class="st0" width="1" height="1"/>
	<rect x="9.9" y="8.2" class="st0" width="1" height="1"/>
	<rect x="12.2" y="8.2" class="st0" width="1" height="1"/>
	<rect x="14.5" y="8.2" class="st0" width="1" height="1"/>
	<rect x="16.8" y="8.2" class="st0" width="1" height="1"/>
	<rect x="8.8" y="23.7" class="st0" width="1.6" height="1.6"/>
	<rect x="11.3" y="23.7" class="st0" width="1.6" height="1.6"/>
</g>
</svg>
