<?xml version="1.0" encoding="utf-8"?>
<!-- Generator: Adobe Illustrator 24.0.0, SVG Export Plug-In . SVG Version: 6.00 Build 0)  -->
<svg version="1.1" id="Layer_1" xmlns="http://www.w3.org/2000/svg" xmlns:xlink="http://www.w3.org/1999/xlink" x="0px" y="0px"
	 viewBox="0 0 30.2 28.1" style="enable-background:new 0 0 30.2 28.1;" xml:space="preserve">
<style type="text/css">
	.st0{fill:#FFFFFF;}
</style>
<g>
	<path class="st0" d="M11,20.6h-0.7v0.6c0,0,0,0,0,0c0,0.1,0,0.1,0,0.2H11V20.6z"/>
	<polygon class="st0" points="17.9,19.1 17.9,19.8 18.6,19.8 18.6,19.8 18.6,19.8 18.6,19.1 18.6,19.1 	"/>
	<rect x="27" y="20.6" class="st0" width="0.7" height="0.7"/>
	<path class="st0" d="M13.6,17.1c0,0.2,0.1,0.3,0.3,0.3c0,0.1,0.1,0.3,0.2,0.3c0,0,0,0,0,0c0.1,0,0.3-0.1,0.3-0.2
		c0-0.1,0-0.3-0.1-0.4c-0.1-0.1-0.3-0.2-0.4-0.2C13.8,16.8,13.6,16.9,13.6,17.1z"/>
	<path class="st0" d="M29.2,20.7c0-0.2-0.1-0.3-0.1-0.5c-0.2-0.4-0.4-0.7-0.8-0.9c-0.2-0.1-0.5-0.2-0.8-0.2c-0.4,0-0.8,0-1.2,0
		c-0.1,0-0.1,0-0.1-0.1c0-0.9,0-1.9,0-2.8v-0.1h-3.8v0.1c0,1,0,1.9,0,2.9c0,0.1,0,0.1-0.1,0.1c-0.2,0-0.4,0-0.6,0
		c-0.1,0-0.1,0-0.1,0v-5.3c0,0,0,0,0,0v0h-0.1c-0.2,0-0.4,0-0.6,0c-0.1,0-0.1,0-0.1-0.1c0-0.5,0-0.9,0-1.4c0,0,0-0.1,0-0.1h-3.8h0
		c0,0,0,0,0,0.1l0-1.9l0,0c-0.7-0.5-1.3-1.1-1.9-1.5c-0.5-0.4-0.9-0.7-1.4-1.1L13,7.1c0,0-0.1-0.1-0.1-0.1l0,0l0,0c0,0,0,0,0,0
		c-0.3,0-0.6,0-0.8,0h0c-0.3,0-0.6,0-0.9,0c-0.1,0-0.3,0-0.4-0.1c-0.3-0.3-0.7-0.5-1-0.8L7.7,4.5C7.5,4.4,7.3,4.2,7.1,4l0,0h0
		C6.7,4,6.4,4,6.1,4C5.8,4,5.6,4,5.3,4l0,0l0,0C4.8,4.4,4.4,4.7,3.9,5L3.1,5.7C2.9,5.9,2.6,6.1,2.4,6.3C1.9,6.7,1.4,7,1,7.4l0,0v0.1
		c0,0.3,0,0.6,0,0.9h0V24h0.7V8.5c0,0,0.1-0.1,0.1-0.1c0.1-0.1,0.2-0.1,0.2-0.1l0.6,0c0.1,0,0.3,0,0.4,0c0.1,0,0.2,0,0.3,0
		c0.1,0,0.2,0,0.3,0h0c0.4,0,0.9,0,1.3,0l0.1,0c0.4,0,0.8,0,1.3,0h0c0.1,0,0.2,0,0.3,0c0.1,0,0.2,0,0.3,0h0c0.3,0,0.6,0,1,0l0,0
		c0.2,0,0.4,0,0.6,0c0,0,0.1,0,0.1,0l0,0l0.1,0l0,0.3L8.8,8.8c0,0-0.1,0.1-0.1,0.1L8.4,9.1C7.8,9.5,7.3,10,6.7,10.4l0,0v0.1
		c0,2.2,0,4.3,0,6.5l0,0v7.1h0.7v-7.3l0,0l0-3v-1.5v-0.7v0v-0.3h1.1c0.1,0,0.2,0,0.3,0c0,0,0,0,0,0H10c0,0,0,0,0,0v-0.1l0,0.1
		c0.2,0,0.4,0,0.6,0h0.9c0.2,0,0.5,0,0.7,0c0,0,0,0,0,0l4,0v2.9h0v4.8c0,0,0,0-0.1,0c-0.1,0-0.2,0-0.3,0v0l-1.4,0l0.4-0.9
		c0.1-0.1,0-0.3-0.1-0.4c-0.1-0.1-0.3,0-0.4,0.1l-0.6,1.1l-0.3,0l-0.1-0.2c-0.1-0.1-0.3-0.1-0.4,0c0,0,0,0,0,0l-0.1,0.2l-0.3,0
		l-0.7-1.4c0-0.1-0.1-0.2-0.1-0.3c0-0.2,0-0.4,0.2-0.6c0.1-0.2,0.4-0.3,0.6-0.3c0.1,0,0.2,0,0.3,0.1c0.1,0.1,0.2,0.1,0.3,0.1l0,0
		c0.1,0,0.2,0,0.3-0.1c0.1-0.1,0.2-0.1,0.3-0.1c0.2,0,0.4,0.1,0.6,0.3c0.1,0.2,0.2,0.4,0.2,0.6c0,0.1,0,0.2,0.1,0.2
		c0,0.1,0.1,0.1,0.2,0.1c0.2,0,0.3-0.1,0.3-0.2c0.1-0.4-0.1-0.8-0.3-1.1c-0.1-0.1-0.2-0.2-0.3-0.3c0.2-0.2,0.3-0.5,0.3-0.7
		c0-0.2-0.1-0.3-0.3-0.3H14c-0.3,0-0.6,0.1-0.7,0.4c-0.2-0.3-0.4-0.6-0.8-0.7c-0.1-0.1-0.3,0-0.4,0.1c0,0.1,0,0.1,0,0.2
		c0,0.1,0.1,0.1,0.1,0.2c0.3,0.1,0.5,0.4,0.6,0.7c-0.1,0-0.2-0.1-0.4-0.1c-0.4,0-0.8,0.2-1,0.5c-0.3,0.3-0.4,0.7-0.3,1.1
		c0,0.2,0.1,0.3,0.1,0.5l0.6,1.1l-2.4,0l0.2,0.7c1.8,0,4.8,0,6.6,0c0,0,0.1,0,0.1,0v0.7c0,0,0,0-0.1,0h-4.4h-0.1v0.7h0.4
		c1.4,0,2.7,0,4.1,0c0,0,0.1,0,0.1,0v0.7c0,0,0,0-0.1,0c-1.8,0-3.7,0-5.5,0v0.7H13v0h1.1c0,0,0,0.1,0,0.1c0,0.1,0,0.1-0.1,0.1
		c-0.2,0-0.4,0-0.6,0h-0.1v0.7h2.3V23c0,0,0,0-0.1,0c-0.2,0-0.4,0-0.6,0c0,0-0.1,0-0.1-0.1c0,0,0-0.1,0-0.1h1.6v0.9c0,0,0.1,0,0.1,0
		h2.4c0.9,0,1.8,0,2.7,0c0,0,0.1,0,0.1,0v-0.9h1.6c0,0,0,0.1,0,0.1c0,0,0,0.1-0.1,0.1c-0.2,0-0.4,0-0.6,0c0,0,0,0-0.1,0v0.7h2.3V23
		h-0.1c-0.2,0-0.4,0-0.6,0c-0.1,0-0.1,0-0.1-0.1c0,0,0-0.1,0-0.1h2.3c0,0,0,0.1,0,0.1c0,0.1,0,0.1-0.1,0.1c-0.2,0-0.4,0-0.6,0
		c0,0,0,0-0.1,0v0.7h2.3V23c-0.2,0-0.5,0-0.7,0C27,23,27,23,27,23c0,0,0-0.1,0-0.1h0.6c0.2,0,0.4-0.1,0.5-0.2
		c0.3-0.1,0.5-0.3,0.7-0.6c0.2-0.3,0.3-0.6,0.4-1C29.3,21,29.3,20.8,29.2,20.7z M14,15.8h0.2C14.2,15.9,14,16,13.8,16h-0.1
		C13.8,15.9,13.9,15.8,14,15.8z M17.9,13.1C17.9,13,17.9,13,17.9,13.1c0.4-0.1,0.7-0.1,1.1-0.1H19h0h0.1c0.3,0,0.7,0,1,0
		c0,0,0.1,0,0.1,0.1c0,0.2,0,0.4,0,0.6c0,0.1,0,0.1-0.1,0.1c-0.3,0-0.7,0-1,0c-0.4,0-0.7,0-1.1,0c0,0-0.1,0-0.1-0.1
		C17.9,13.5,17.9,13.3,17.9,13.1z M20.9,22.7V23c0,0.1,0,0.1-0.1,0.1h-3.6c-0.1,0-0.1,0-0.1-0.1v-0.2v-8.1c0-0.1,0-0.1,0.1-0.1h3.6
		c0.1,0,0.1,0,0.1,0.1V22.7z M23.2,16.9C23.2,16.8,23.2,16.8,23.2,16.9c0.3-0.1,0.5-0.1,0.7-0.1c0.1,0,0.1,0,0.1,0.1
		c0,0.2,0,0.4,0,0.6v0.1h0.7v-0.1c0-0.2,0-0.4,0-0.6c0-0.1,0-0.1,0.1-0.1c0.2,0,0.4,0,0.7,0c0,0,0.1,0,0.1,0.1c0,0.7,0,1.4,0,2.2
		c0,0.1,0,0.1-0.1,0.1c-0.7,0-1.5,0-2.2,0c-0.1,0-0.1,0-0.1-0.1C23.2,18.3,23.2,17.6,23.2,16.9z M27.8,22.1
		c-0.1,0.1-0.3,0.1-0.4,0.1c-1.9,0-3.7,0-5.6,0c-0.1,0-0.1,0-0.1,0v-0.7c0,0,0,0,0.1,0c1.4,0,2.7,0,4.1,0h0.4v-0.7h-0.1h-4.4
		c-0.1,0-0.1,0-0.1,0v-0.7c0,0,0,0,0.1,0c1.9,0,3.8,0,5.7,0c0.4,0,0.7,0.2,0.9,0.5c0.2,0.2,0.2,0.5,0.2,0.7
		C28.5,21.5,28.2,21.9,27.8,22.1z"/>
	<polygon class="st0" points="19.4,19.1 19.4,19.8 19.4,19.8 19.4,19.8 20.1,19.8 20.1,19.1 19.4,19.1 	"/>
	<path class="st0" d="M17.9,18.3h2.2h0v-3h-2.2V18.3z M18.6,16.1C18.6,16.1,18.6,16.1,18.6,16.1c0.2-0.1,0.3-0.1,0.4-0.1
		c0.1,0,0.2,0,0.3,0c0,0,0.1,0,0.1,0.1c0,0.5,0,0.9,0,1.4c0,0,0,0,0,0c0,0,0,0,0,0c0,0,0,0,0,0c0,0,0,0,0,0c-0.1,0-0.2,0-0.3,0
		c-0.1,0-0.2,0-0.3,0c0,0,0,0,0,0c0,0,0,0,0,0c0,0,0,0,0,0c0,0,0,0,0,0C18.6,17.1,18.6,16.6,18.6,16.1z"/>
</g>
</svg>
