<?xml version="1.0" encoding="utf-8"?>
<!-- Generator: Adobe Illustrator 24.0.0, SVG Export Plug-In . SVG Version: 6.00 Build 0)  -->
<svg version="1.1" id="Layer_1" xmlns="http://www.w3.org/2000/svg" xmlns:xlink="http://www.w3.org/1999/xlink" x="0px" y="0px"
	 viewBox="0 0 791.7 53" enable-background="new 0 0 791.7 53" xml:space="preserve">
<g>
	<g>
		<rect x="105.6" y="0.2" fill="#11ADE2" width="52.8" height="52.8"/>
		<path fill="#03455C" d="M105.5,53V0.2c29.2,0,52.8,23.6,52.8,52.8C158.3,53,134.7,53,105.5,53z"/>
		<path fill="#F3B117" d="M105.5,53V26.6c14.6,0,26.4,11.8,26.4,26.4C131.9,53,120.1,53,105.5,53z"/>
	</g>
	<g>
		<rect x="158.3" y="0.1" fill="#03455C" width="52.8" height="52.8"/>
		<polygon fill="#11ADE2" points="211.1,53 158.3,53 158.3,0.2 		"/>
		<polygon fill="#03455C" points="184.7,26.6 211.1,26.6 211.1,53 		"/>
		<polygon fill="#F3B117" points="184.7,53 158.3,53 158.3,26.6 		"/>
		<polygon fill="#11ADE2" points="211.1,26.6 184.7,26.6 184.7,0.2 		"/>
	</g>
	<g>
		<rect x="52.8" y="0.1" fill="#03455C" width="52.8" height="52.8"/>
		<path fill="#70B044" d="M105.5,53H52.7c0-29.2,23.6-52.8,52.8-52.8C105.5,0.2,105.5,23.8,105.5,53z"/>
		<path fill="#03455C" d="M105.5,53H79.2c0-14.6,11.8-26.4,26.4-26.4C105.5,26.6,105.5,38.4,105.5,53z"/>
	</g>
	<g>
		<rect x="316.7" y="0.2" fill="#03455C" width="52.8" height="52.8"/>
		<path fill="#70B044" d="M369.5,53h-52.8c0-29.2,23.6-52.8,52.8-52.8C369.5,0.2,369.5,23.8,369.5,53z"/>
		<path fill="#03455C" d="M369.5,53h-26.4c0-14.6,11.8-26.4,26.4-26.4C369.5,26.6,369.5,38.4,369.5,53z"/>
	</g>
	<g>
		<rect x="263.9" y="0.1" fill="#03455C" width="52.8" height="52.8"/>
		<path fill="#FFFFFF" d="M263.9,0.2h52.8c0,29.2-23.6,52.8-52.8,52.8C263.9,53,263.9,29.3,263.9,0.2z"/>
		<path fill="#03455C" d="M263.9,0.2h26.4c0,14.6-11.8,26.4-26.4,26.4C263.9,26.6,263.9,14.7,263.9,0.2z"/>
		<path fill="#70B044" d="M263.9,0.2h13.2c0,7.3-5.9,13.2-13.2,13.2C263.9,13.4,263.9,7.5,263.9,0.2z"/>
	</g>
	<g>
		<rect x="211.1" y="0.2" fill="#F3B117" width="52.8" height="52.8"/>
		<path fill="#03455C" d="M263.9,0.2h-52.8c0,29.2,23.6,52.8,52.8,52.8C263.9,53,263.9,29.3,263.9,0.2z"/>
		<path fill="#11ADE2" d="M263.9,0.2v26.4c-14.6,0-26.4-11.8-26.4-26.4C237.5,0.2,249.3,0.2,263.9,0.2z"/>
		<path fill="#03455C" d="M263.9,0.2v13.2c-7.3,0-13.2-5.9-13.2-13.2C250.7,0.2,256.6,0.2,263.9,0.2z"/>
	</g>
	<g>
		<rect x="738.9" y="0.1" fill="#03455C" width="52.8" height="52.8"/>
		<path fill="#11ADE2" d="M738.9,0.1v52.8c29.2,0,52.8-23.6,52.8-52.8C791.7,0.1,768.1,0.1,738.9,0.1z"/>
		<path fill="#03455C" d="M738.9,0.1h26.4c0,14.6-11.8,26.4-26.4,26.4C738.9,26.5,738.9,14.7,738.9,0.1z"/>
		<path fill="#11ADE2" d="M738.9,0.1h13.2c0,7.3-5.9,13.2-13.2,13.2C738.9,13.3,738.9,7.4,738.9,0.1z"/>
	</g>
	<g>
		<rect x="528" y="0.2" fill="#FFFFFF" width="52.6" height="52.6"/>
		<path fill="#03455C" d="M551,47.8c-1.2,0.7-2.6,1.3-3.9,1.8l0.3,3.4h8.6L551,47.8z"/>
		<path fill="#03455C" d="M532.1,52.9h5.7l-0.4-1.7c-1.5,0-2.9-0.2-4.3-0.4L532.1,52.9z"/>
		<path fill="#F3B117" d="M537.9,5.7c-3.7,0-7.2,1.1-10.1,3.1v30.6c2.9,1.9,6.4,3.1,10.1,3.1c10.1,0,18.4-8.2,18.4-18.4
			S548.1,5.7,537.9,5.7z"/>
		<path fill="#03455C" d="M562.1,0.1l4.7,5.8l-5.2,5c0.7,1.2,1.3,2.6,1.8,3.9l7.2-0.6l1.4,8.6l-7.1,1.8c0,1.4-0.2,2.9-0.4,4.3
			l6.6,3.1l-3.1,8.1l-7-2c-0.7,1.2-1.6,2.4-2.5,3.5l4.2,6l-6.6,5.4h24.4V0.1H562.1z"/>
		<path fill="#03455C" d="M557,20.9C555.2,10.3,545.3,3.2,534.7,5c-2.5,0.4-4.8,1.3-6.8,2.5v1.3c2.1-1.4,4.4-2.3,7-2.7
			c4.8-0.8,9.6,0.3,13.6,3.2c4,2.8,6.6,7,7.4,11.8c0.8,4.8-0.3,9.6-3.2,13.6c-2.8,4-7,6.6-11.8,7.4c-1,0.2-2,0.3-3,0.3
			c-3.5,0-6.9-1-9.9-3v1.3c3.8,2.3,8.4,3.3,13.1,2.5C551.6,41.4,558.7,31.4,557,20.9z"/>
		<path fill="#03455C" d="M552.1,0.1l-0.2,0.7c1.2,0.7,2.4,1.6,3.5,2.5l4.6-3.2C560,0.1,552.1,0.1,552.1,0.1z"/>
	</g>
	<g>
		<polygon fill="#03455C" points="475,0.1 501.4,0.1 501.4,26.5 		"/>
		<rect x="475" y="0.1" fill="#03455C" width="52.8" height="52.8"/>
		<polygon fill="#F3B117" points="475,52.9 475,0.1 527.8,0.1 		"/>
		<polygon fill="#70B044" points="501.4,26.5 501.4,0.1 527.8,0.1 		"/>
		<path fill="#FFFFFF" d="M527.8,8.6c-5,3.3-8.4,9-8.4,15.4s3.3,12.1,8.4,15.4V8.6z"/>
	</g>
	<g>
		<rect x="580.6" y="0.1" fill="#03455C" width="52.8" height="52.8"/>
		<path fill="#70B044" d="M633.4,0.1v52.8c-29.2,0-52.8-23.6-52.8-52.8C580.6,0.1,604.2,0.1,633.4,0.1z"/>
		<path fill="#03455C" d="M633.4,0.1H607c0,14.6,11.8,26.4,26.4,26.4C633.4,26.5,633.4,14.7,633.4,0.1z"/>
		<path fill="#11ADE2" d="M633.4,0.1h-13.2c0,7.3,5.9,13.2,13.2,13.2C633.4,13.3,633.4,7.4,633.4,0.1z"/>
	</g>
	<g>
		<rect x="686.2" y="0.1" fill="#FFFFFF" width="52.8" height="52.8"/>
		<path fill="#03455C" d="M686.2,52.9V0.1c29.2,0,52.8,23.6,52.8,52.8C738.9,52.9,715.3,52.9,686.2,52.9z"/>
		<path fill="#FFFFFF" d="M686.2,52.9h26.4c0-14.6-11.8-26.4-26.4-26.4C686.2,26.5,686.2,38.3,686.2,52.9z"/>
		<path fill="#03455C" d="M686.2,52.9V39.7c7.3,0,13.2,5.9,13.2,13.2C699.4,52.9,693.4,52.9,686.2,52.9z"/>
	</g>
	<g>
		<path fill="#FFFFFF" d="M686.2,52.9H673c0-7.3,5.9-13.2,13.2-13.2C686.2,39.7,686.2,45.6,686.2,52.9z"/>
		<rect x="633.4" y="0.1" fill="#F3B117" width="52.8" height="52.8"/>
		<path fill="#FFFFFF" d="M666.3,5.5L678.6,2l3.7,10.1c1.3-0.1,2.5-0.2,3.8-0.2v8.9c-13.9-0.1-26.7,9.3-30.3,23.5
			c-0.7,2.8-1,5.7-0.9,8.5H646c0-1.2,0-2.4,0.1-3.5l-10.2-3.5l3.2-12.4l10.6,1.8c0.9-1.9,1.9-3.8,3.1-5.5l-7.1-8.1l8.9-9.2l8.3,6.9
			c1.7-1.2,3.6-2.3,5.5-3.2L666.3,5.5z"/>
		<path fill="#70B044" d="M686.2,52.9V26.5c-14.6,0-26.4,11.8-26.4,26.4C659.8,52.9,671.6,52.9,686.2,52.9z"/>
		<path fill="#FFFFFF" d="M686.2,52.9V39.7c-7.3,0-13.2,5.9-13.2,13.2C673,52.9,678.9,52.9,686.2,52.9z"/>
	</g>
	<g>
		<rect x="369.4" y="0.1" fill="#03455C" width="52.8" height="52.8"/>
		<polygon fill="#11ADE2" points="369.5,52.9 422.2,52.9 422.2,0.1 		"/>
		<polygon fill="#FFFFFF" points="395.9,52.9 422.2,52.9 422.2,26.5 		"/>
		<polygon fill="#F3B117" points="395.9,0.1 369.5,0.1 369.5,26.5 		"/>
	</g>
	<g>
		<rect x="422.2" y="0.1" fill="#FFFFFF" width="52.8" height="52.8"/>
		<polygon fill="#03455C" points="448.6,0 422.2,0 422.2,26.4 		"/>
		<rect x="448.6" y="0.1" fill="#70B044" width="26.4" height="52.8"/>
		<path fill="#03455C" d="M422.2,52.9H475c0-14.6-11.8-26.4-26.4-26.4C434,26.5,422.2,38.3,422.2,52.9z"/>
		<path fill="#70B044" d="M448.6,52.9V26.5c-14.6,0-26.4,11.8-26.4,26.4C422.2,52.9,434.1,52.9,448.6,52.9z"/>
		<polygon fill="#03455C" points="475,0 448.6,0 448.6,26.4 		"/>
		<path fill="#F3B117" d="M448.6,52.9h13.2c0-7.3-5.9-13.2-13.2-13.2C448.6,39.7,448.6,45.6,448.6,52.9z"/>
	</g>
	<g>
		<rect y="0.3" fill="#11ADE2" width="52.7" height="52.7"/>
		<path fill="#70B044" d="M35.7,0.2h17.1V10c0,13-10.5,23.5-23.5,23.5H13.2V22.7C13.2,10.3,23.3,0.2,35.7,0.2z"/>
	</g>
</g>
</svg>
