<?xml version="1.0" encoding="utf-8"?>
<!-- Generator: Adobe Illustrator 24.0.0, SVG Export Plug-In . SVG Version: 6.00 Build 0)  -->
<svg version="1.1" id="Layer_1" xmlns="http://www.w3.org/2000/svg" xmlns:xlink="http://www.w3.org/1999/xlink" x="0px" y="0px"
	 viewBox="0 0 1080 72" enable-background="new 0 0 1080 72" xml:space="preserve">
<g>
	<g>
		<rect x="144" y="0" fill="#11ADE2" width="72" height="72"/>
		<path fill="#03455C" d="M144,72V0c39.8,0,72,32.2,72,72C216,72,183.8,72,144,72z"/>
		<path fill="#F3B117" d="M144,72V36.1c19.9,0,35.9,16.1,35.9,35.9C179.9,72,163.9,72,144,72z"/>
	</g>
	<g>
		<rect x="216" y="0" fill="#03455C" width="72" height="72"/>
		<polygon fill="#11ADE2" points="288,72 216,72 216,0 		"/>
		<polygon fill="#03455C" points="252,36 288,36 288,72 		"/>
		<polygon fill="#F3B117" points="252,72 216,72 216,36 		"/>
		<polygon fill="#11ADE2" points="288,36 252,36 252,0 		"/>
	</g>
	<g>
		<rect x="72" y="0" fill="#03455C" width="72" height="72"/>
		<path fill="#70B044" d="M144,36.1c0-21.6,0-36.1,0-36.1c-39.8,0-72,32.2-72,72h36.2C108.2,52.2,124.2,36.2,144,36.1z"/>
	</g>
	<g>
		<rect x="432" y="0" fill="#03455C" width="72" height="72"/>
		<path fill="#70B044" d="M504,72h-72c0-39.8,32.2-72,72-72C504,0,504,32.2,504,72z"/>
		<path fill="#03455C" d="M504,72h-36c0-19.9,16.1-36,36-36C504,36,504,52.1,504,72z"/>
	</g>
	<g>
		<rect x="360" y="0" fill="#03455C" width="72" height="72"/>
		<path fill="#FFFFFF" d="M360,0h72c0,39.8-32.2,72-72,72C360,72,360,39.7,360,0z"/>
		<path fill="#03455C" d="M360,0h36c0,19.9-16.1,36-36,36C360,36,360,19.8,360,0z"/>
		<path fill="#70B044" d="M360,0h18c0,10-8,18-18,18C360,18,360,10,360,0z"/>
	</g>
	<g>
		<rect x="288" y="0" fill="#F3B117" width="72" height="72"/>
		<path fill="#03455C" d="M360,0h-72c0,39.8,32.2,72,72,72C360,72,360,39.7,360,0z"/>
		<path fill="#11ADE2" d="M360,0v36c-19.9,0-36-16.1-36-36C324,0,340.1,0,360,0z"/>
		<path fill="#03455C" d="M360,0v18c-10,0-18-8-18-18C342,0,350,0,360,0z"/>
	</g>
	<g>
		<rect x="1008" y="0" fill="#03455C" width="72" height="72"/>
		<path fill="#11ADE2" d="M1008,0v72c39.8,0,72-32.2,72-72C1080,0,1047.8,0,1008,0z"/>
		<path fill="#03455C" d="M1008,0h36c0,19.9-16.1,36-36,36C1008,36,1008,19.9,1008,0z"/>
		<path fill="#11ADE2" d="M1008,0h18c0,10-8,18-18,18C1008,18,1008,10,1008,0z"/>
	</g>
	<g>
		<rect x="720" y="0" fill="#FFFFFF" width="72" height="72"/>
		<path fill="#F3B117" d="M733.8,7.5c-5,0-9.8,1.5-13.8,4.2v41.7c4,2.6,8.7,4.2,13.8,4.2c13.8,0,25.1-11.2,25.1-25.1
			S747.7,7.5,733.8,7.5z"/>
		<path fill="#03455C" d="M759.5,28.2c-2.5-14.5-16-24.1-30.4-21.7c-3.3,0.5-6.4,1.7-9.1,3.3v1.8c2.8-1.9,5.9-3.1,9.4-3.6
			c6.5-1.1,13.1,0.4,18.5,4.4c5.5,3.8,9,9.5,10.1,16.1c1.1,6.5-0.4,13.1-4.4,18.5c-3.8,5.5-9.5,9-16.1,10.1
			c-1.4,0.3-2.7,0.4-4.1,0.4c-4.8,0-9.4-1.4-13.5-4.1v1.8c5.2,3.1,11.4,4.5,17.9,3.4C752.2,56.2,761.9,42.5,759.5,28.2z"/>
		<path fill="#03455C" d="M751.8,64.9c-1.6,1-3.5,1.8-5.3,2.4l0.4,4.6h11.7L751.8,64.9z M726.1,72h7.8l-0.5-2.3
			c-2,0-3.9-0.3-5.9-0.5L726.1,72z M767,0l6.4,7.9l-7.1,6.8c1,1.6,1.8,3.5,2.4,5.3l9.8-0.8l1.9,11.7l-9.7,2.4c0,1.9-0.3,3.9-0.5,5.9
			l9,4.2l-4.2,11l-9.5-2.7c-1,1.6-2.2,3.3-3.4,4.8l5.7,8.2l-9,7.3H792V0H767z M753.3,0l-0.3,1c1.6,1,3.3,2.2,4.8,3.4l6.3-4.4
			C764.1,0,753.3,0,753.3,0z"/>
	</g>
	<g>
		<polygon fill="#03455C" points="648,0 684,0 684,36 		"/>
		<rect x="648" y="0" fill="#03455C" width="72" height="72"/>
		<polygon fill="#F3B117" points="648,72 648,0 720,0 		"/>
		<polygon fill="#70B044" points="684,36 684,0 720,0 		"/>
		<path fill="#FFFFFF" d="M720,11.6c-6.8,4.5-11.5,12.3-11.5,21s4.5,16.5,11.5,21V11.6z"/>
	</g>
	<g>
		<rect x="792" y="0" fill="#03455C" width="72" height="72"/>
		<path fill="#70B044" d="M864,0v72c-39.8,0-72-32.2-72-72C792,0,824.2,0,864,0z"/>
		<path fill="#03455C" d="M864,0h-36c0,19.9,16.1,36,36,36C864,36,864,19.9,864,0z"/>
		<path fill="#11ADE2" d="M864,0h-18c0,10,8,18,18,18C864,18,864,10,864,0z"/>
	</g>
	<g>
		<rect x="936" y="0" fill="#FFFFFF" width="72" height="72"/>
		<path fill="#03455C" d="M936,72V0c39.8,0,72,32.2,72,72C1007.9,72,975.7,72,936,72z"/>
		<path fill="#FFFFFF" d="M936,72h36c0-19.9-16.1-36-36-36C936,36,936,52.1,936,72z"/>
		<path fill="#03455C" d="M936,72V54c10,0,18,8,18,18C954,72,945.8,72,936,72z"/>
	</g>
	<g>
		<path fill="#FFFFFF" d="M936,72h-18c0-10,8-18,18-18C936,54,936,62,936,72z"/>
		<rect x="864" y="0" fill="#F3B117" width="72" height="72"/>
		<path fill="#FFFFFF" d="M909,7.5l16.8-4.8l5,13.8c1.8-0.1,3.4-0.3,5.2-0.3v12.1c-19-0.1-36.4,12.7-41.3,32
			c-1,3.8-1.4,7.8-1.2,11.6h-12.1c0-1.6,0-3.3,0.1-4.8l-13.9-4.8l4.4-16.9l14.5,2.5c1.2-2.6,2.6-5.2,4.2-7.5l-9.7-11L893,16.9
			l11.3,9.4c2.3-1.6,4.9-3.1,7.5-4.4L909,7.5z"/>
		<path fill="#70B044" d="M936,72V36c-19.9,0-36,16.1-36,36C900,72,916.1,72,936,72z"/>
		<path fill="#FFFFFF" d="M936,72V54c-10,0-18,8-18,18C918,72,926,72,936,72z"/>
	</g>
	<g>
		<rect x="504" y="0" fill="#03455C" width="72" height="72"/>
		<polygon fill="#11ADE2" points="504,72 576,72 576,0 		"/>
		<polygon fill="#FFFFFF" points="540.1,72 576,72 576,36 		"/>
		<polygon fill="#F3B117" points="540,0 504,0 504,36 		"/>
	</g>
	<g>
		<rect x="576" y="0" fill="#FFFFFF" width="72" height="72"/>
		<polygon fill="#03455C" points="612,0 576,0 576,36 		"/>
		<rect x="612" y="0" fill="#70B044" width="36" height="72"/>
		<path fill="#03455C" d="M576,72h72c0-19.9-16.1-36-36-36C592.1,36,576,52.1,576,72z"/>
		<path fill="#70B044" d="M612,72V36c-19.9,0-36,16.1-36,36C576,72,592.2,72,612,72z"/>
		<polygon fill="#03455C" points="648,0 612,0 612,36 		"/>
		<path fill="#F3B117" d="M612,72h18c0-10-8-18-18-18C612,54,612,62,612,72z"/>
	</g>
	<g>
		<rect y="0" fill="#11ADE2" width="72" height="72"/>
		<path fill="#70B044" d="M48.7,0H72v13.4c0,17.7-14.3,32-32,32H18V30.7C18,13.8,31.8,0,48.7,0z"/>
	</g>
</g>
</svg>
