<?xml version="1.0" encoding="utf-8"?>
<!-- Generator: Adobe Illustrator 24.0.0, SVG Export Plug-In . SVG Version: 6.00 Build 0)  -->
<svg version="1.1" id="Layer_1" xmlns="http://www.w3.org/2000/svg" xmlns:xlink="http://www.w3.org/1999/xlink" x="0px" y="0px"
	 viewBox="0 0 521.2 118.1" enable-background="new 0 0 521.2 118.1" xml:space="preserve">
<g>
	<path fill="#FFFFFF" d="M225.8,67.9c-2.9-0.4-5.9-0.7-8.8-0.8c-2.6,0-5.1,0.1-7.7,0.1c-0.1,9.6-2.6,19.2-3.8,28.7
		c-0.4,3.7-1.1,7.3-1.8,10.9c-0.7,3.3,2.5,6.1,5.6,5c14.4-4.9,14.2-15.6,17.2-27C229.4,74,228.9,70.1,225.8,67.9z"/>
	<path fill="#FFFFFF" d="M198.5,67c-6.2-0.2-12.4-0.2-18.5-0.1c-4.2,0-10.1-0.7-13.9,1.1c-2.8,1.4-4.6,6.9-6.8,11
		c-2.4,4.4-9.3,22.7-11.8,27.9c-1.9,4.1-0.7,8.5,3.8,8.3c17.2-0.7,37.1-0.6,38-0.7c4.5-0.2,8.8-3.7,9.3-8.2c0.3-4,4.7-28,4.9-35.8
		C203.6,66.8,200.5,67.1,198.5,67z"/>
	<path fill="#FFFFFF" d="M106.4,80.4c2.8-2.7,5.6-5.5,8.7-8c-27.3,5.2-53.5,14.5-75.4,30.2c-6.2,8.3,6.6,12.3,27,13.9
		c4.7,0.4,9.2-1.8,12-5.6c0.2-0.1,0.3-0.2,0.4-0.3c3.9-5.2,8.1-10.3,12.5-15.1C96.4,90.3,101.3,85.2,106.4,80.4z"/>
	<path fill="#FFFFFF" d="M156.1,75.9c1.3-2.8,2.5-5.6,4.3-8.2c-10.3,0.5-23.2-0.6-33.3,1.8c-9.5,2.2-21.1,17.1-30,25.9
		c-4.6,4.5-10.6,10.5-17.1,19.5c-3.7,5.2,32,2.7,50.1,2.2c5.4-0.1,10.1-3.6,12-8.7c2.4-6.4,5.1-12.6,7.8-18.6
		C151.9,85.1,154,80.5,156.1,75.9z"/>
	<path fill="#FFFFFF" d="M263,49.1c0-1.3,0-3.1,0-5.4c0-1.1,0-2.4,0-3.9s0-2.8,0-3.9h-4.1c0,1.5,0,3,0,4.4c0,1.5,0,2.7,0,3.6
		c0,2.3,0,4.1,0,5.4s0,2.3,0,3h4.1C263,51.3,263,50.2,263,49.1z"/>
	<path fill="#FFFFFF" d="M268.7,47.7c0-2.5,0-4.6,0-6.4h0.1c0.4,0.5,1.4,1.8,3.2,3.9c1.7,2.1,3.6,4.6,5.7,7.3l2.9-1.2
		c0-0.4,0-1.3,0-2.8s0-3.1,0-5c0-0.8,0-2,0-3.4c0-1.3,0-2.8,0-4.1h-3.8c0,1.3,0,3.1,0,5.3s0,3.9,0,5c-1.9-2.3-3.7-4.5-5.5-6.7
		c-1.8-2.2-2.8-3.5-3.2-3.9l-3.2,1.3c0,1.5,0,2.9,0,4.2c0,1.3,0,2.4,0,3.2c0,2.1,0,3.8,0,5.2s0,2.3,0,2.7h3.8
		C268.7,51.7,268.7,50.2,268.7,47.7z"/>
	<path fill="#FFFFFF" d="M286.9,52.3c1.7,0,3.1-0.2,4.3-0.5s2.3-0.7,3.3-1.3c1.2-0.6,2.1-1.5,2.8-2.6c0.7-1.1,1.1-2.4,1.1-3.8
		s-0.3-2.6-0.9-3.6s-1.5-1.9-2.7-2.7c-1.1-0.6-2.3-1.1-3.6-1.4c-1.3-0.3-2.9-0.5-4.7-0.5c-0.4,0-1,0-2,0c-0.9,0-1.5,0-1.6,0
		c0,1.7,0,3.2,0,4.6c0,1.3,0,2.5,0,3.4c0,2.2,0,4.1,0,5.8c0,1.7,0,2.5,0,2.6c0.1,0,0.6,0,1.5,0C285.3,52.3,286.1,52.3,286.9,52.3z
		 M287,45.3v-2.1v-1.8c0-0.8,0-1.6,0-2.4h0.2h0.3c0.7,0,1.5,0,2.3,0.2c0.8,0.2,1.5,0.5,2.2,0.9c0.8,0.5,1.3,1,1.7,1.7
		c0.3,0.6,0.5,1.4,0.5,2.2c0,0.9-0.2,1.7-0.6,2.5c-0.5,0.6-1.1,1.2-1.9,1.7c-0.5,0.3-1.2,0.5-2,0.7s-1.6,0.3-2.3,0.3h-0.2H287
		C287,47.5,287,46.3,287,45.3z"/>
	<path fill="#FFFFFF" d="M302,50.6c0.8,0.7,1.7,1.3,2.7,1.6c1,0.3,2.1,0.5,3.2,0.5c1.1,0,2.2-0.1,3.2-0.5c1-0.4,1.9-0.9,2.7-1.7
		c0.9-0.8,1.5-1.7,2-2.8c0.5-1.1,0.7-2.3,0.7-3.6s-0.2-2.5-0.7-3.6c-0.5-1.1-1.1-2.1-2-2.9c-0.8-0.8-1.7-1.3-2.7-1.7
		c-1-0.4-2.1-0.6-3.3-0.6c-1.2,0-2.4,0.2-3.4,0.6c-1,0.4-1.9,1-2.7,1.8c-0.9,0.8-1.5,1.8-1.9,2.8c-0.4,1.1-0.6,2.2-0.6,3.5
		c0,1.3,0.2,2.6,0.7,3.7C300.4,48.9,301.1,49.8,302,50.6z M303.8,41.7c0.3-0.8,0.7-1.4,1.2-1.9c0.4-0.4,0.8-0.7,1.3-0.9
		s1-0.3,1.6-0.3c0.6,0,1.1,0.1,1.6,0.3c0.4,0.2,0.8,0.5,1.2,0.8c0.6,0.5,1,1.2,1.3,2c0.3,0.9,0.4,1.7,0.4,2.5c0,0.8-0.2,1.6-0.5,2.4
		c-0.3,0.7-0.7,1.3-1.2,1.8c-0.4,0.3-0.8,0.6-1.3,0.8c-0.4,0.2-1,0.3-1.5,0.3c-0.6,0-1.1-0.1-1.6-0.3c-0.5-0.2-0.9-0.5-1.3-0.8
		c-0.5-0.5-0.9-1.2-1.2-1.9s-0.4-1.5-0.4-2.4S303.5,42.5,303.8,41.7z"/>
	<rect x="317" y="43.4" fill="#FFFFFF" width="8" height="3.3"/>
	<path fill="#FFFFFF" d="M330.1,49.8c0-1.5,0-3.3,0-5.6c0-1.3,0-2.7,0-4.2s0-2.9,0-4.1H326c0,1.3,0,2.6,0,3.9s0,2.4,0,3.4
		c0,2.6,0,4.7,0,6.3c0,1.6,0,2.5,0,2.8h4.1C330.1,52,330.1,51.1,330.1,49.8z"/>
	<path fill="#FFFFFF" d="M337.3,52.5l3.6-1.5c-1.7-1.8-3.1-3.5-4.2-4.8c-1.2-1.4-1.8-2.1-1.9-2.2c0.2-0.2,0.9-1.1,2.1-2.6
		s2.3-2.9,3.5-4.3l-3.6-1.5c-1.3,1.9-2.7,3.6-4,5.3c-1.3,1.6-2.2,2.8-2.6,3.3c0.1,0.1,0.9,1,2.4,2.7C334,48.5,335.6,50.4,337.3,52.5
		z"/>
	<path fill="#FFFFFF" d="M347.4,52.3c1.3,0,2.7,0,4,0s2.1,0,2.4,0h0.1v-3.1c-0.2,0-0.7,0-1.5,0c-0.7,0-1.6,0-2.5,0
		c-0.6,0-1.4,0-2.2,0c-0.9,0-1.5,0-2,0c0-0.5,0-1,0-1.7c0-0.7,0-1.5,0-2.5c0.5,0,1,0,1.7,0c0.6,0,1.2,0,1.6,0c0.8,0,1.7,0,2.8,0
		c1.1,0,1.7,0,1.9,0v-2.4c-0.3,0-0.9,0-1.8,0c-1,0-1.9,0-3,0c-0.4,0-0.9,0-1.6,0c-0.6,0-1.2,0-1.6,0c0-0.5,0-1.1,0-1.8
		c0-0.6,0-1.3,0-1.9c0.4,0,1,0,1.7,0s1.4,0,1.9,0c0.9,0,1.9,0,2.8,0c0.9,0,1.5,0,1.6,0v-3c-0.2,0-0.9,0-2.3,0s-2.8,0-4.2,0
		c-1,0-2.1,0-3.1,0c-1.1,0-1.8,0-2.4,0c0,1.6,0,3,0,4.5s0,2.7,0,3.6c0,2.2,0,4,0,5.5c0,1.4,0,2.4,0,2.8c0.5,0,1.3,0,2.4,0
		C345.2,52.3,346.3,52.3,347.4,52.3z"/>
	<path fill="#FFFFFF" d="M359.2,47.7c0-2.5,0-4.6,0-6.4h0.1c0.4,0.5,1.4,1.8,3.2,3.9c1.7,2.1,3.6,4.6,5.7,7.3l2.9-1.2
		c0-0.4,0-1.3,0-2.8s0-3.1,0-5c0-0.8,0-2,0-3.4c0-1.3,0-2.8,0-4.1h-3.7c0,1.3,0,3.1,0,5.3s0,3.9,0,5h-0.1c-1.9-2.3-3.7-4.5-5.5-6.7
		c-1.8-2.2-2.8-3.5-3.2-3.9l-3.2,1.3c0,1.5,0,2.9,0,4.2c0,1.3,0,2.4,0,3.2c0,2.1,0,3.8,0,5.2s0,2.3,0,2.7h3.8
		C359.2,51.7,359.2,50.2,359.2,47.7z"/>
	<path fill="#FFFFFF" d="M377.5,45.5c0,1.3,0,2.6,0,3.9c0,1.2,0,2.2,0,2.8h4.1c0-0.7,0-1.6,0-2.9c0-1.2,0-2.6,0-3.9
		c0.9-1.3,2.1-3,3.5-5c1.4-2,2.2-3.2,2.4-3.5l-3.8-1.4c-0.1,0.3-0.6,1-1.5,2.3s-1.8,2.6-2.7,4c-0.8-1.2-1.7-2.5-2.5-3.7
		c-0.8-1.3-1.3-2.1-1.6-2.6l-3.8,1.5c0.3,0.5,1.2,1.7,2.5,3.6S376.6,44.1,377.5,45.5z"/>
	<path fill="#FFFFFF" d="M381.9,51.3l3.8,1.3c0.1-0.3,0.3-0.9,0.6-1.8c0.3-0.9,0.7-1.9,1.2-3.1h6.2c0.5,1.2,0.9,2.2,1.2,3.1
		c0.3,0.9,0.5,1.5,0.6,1.8l4-1.3c-0.1-0.3-0.9-2.1-2.3-5.5c-1.5-3.5-2.9-6.8-4.3-10.1h-4.2c-1.3,3.1-2.7,6.4-4.2,9.8
		C383,48.9,382.1,50.8,381.9,51.3z M389.5,42.4c0.4-1.1,0.8-2.1,1.1-2.9c0.4,0.9,0.7,1.9,1.1,2.9c0.3,1.1,0.7,2,1,2.8h-4.2
		C388.7,44.5,389.1,43.6,389.5,42.4z"/>
	<path fill="#FFFFFF" d="M300.9,64.9c1.2-0.5,2.6-0.9,4.2-1.1c1.6-0.2,3.1-0.3,4.5-0.3h1h0.7l-0.7-5.7c-0.3,0-0.5,0-0.8,0
		c-0.2,0-0.5,0-0.9,0c-2.8,0-5.4,0.3-7.7,0.8c-2.4,0.6-4.4,1.4-6.1,2.4c-2.1,1.3-3.8,2.8-4.9,4.6c-1.1,1.8-1.7,3.9-1.7,6.2
		c0,2.1,0.4,4,1.2,5.6s1.9,2.9,3.3,4c2.1,1.6,4.3,2.8,6.8,3.4c2.5,0.6,5.2,0.9,8.3,0.9c0.7,0,1.6,0,2.7-0.1c1.1-0.1,1.7-0.2,1.9-0.2
		c0-1.1,0-2.3,0-3.6s0-2.6,0-3.9c0-0.9,0-2,0-3.3c0.1-1.3,0.1-2.4,0.1-3.4h-6.5c0,2.9,0,5.2,0,6.8c0,1.6,0,2.5,0,2.8
		c-1.3-0.1-2.5-0.2-3.6-0.5c-1.2-0.3-2.2-0.7-3.2-1.2c-1.2-0.6-2.2-1.5-3-2.7s-1.2-2.6-1.2-4.3c0-1.5,0.5-2.9,1.5-4.2
		S299.2,65.6,300.9,64.9z"/>
	<path fill="#FFFFFF" d="M398.8,73.5c1.4-1.8,2.2-2.9,2.4-3.3l-4.7-3.1c-0.1,0.3-0.7,1.3-1.9,3.2c-1.2,1.8-2.5,3.6-3.9,5.4
		c-0.4-0.3-1-0.7-1.8-1.4c-0.9-0.7-1.6-1.3-2.3-1.8v-0.1c1.8-1.4,3-2.7,3.9-4c0.9-1.3,1.3-2.7,1.3-4.1c0-2.1-0.8-3.8-2.5-5.1
		c-1.7-1.3-3.9-2-6.6-2c-2.6,0-4.8,0.7-6.7,2c-1.9,1.3-2.8,3-2.8,5c0,1.2,0.3,2.2,0.8,3.2s1.3,1.9,2.2,2.6c-1.5,1-2.7,2.2-3.7,3.5
		c-0.9,1.4-1.4,2.9-1.4,4.5c0,2.2,0.9,4,2.7,5.6c1.8,1.6,4.3,2.4,7.6,2.4c1.7,0,3.4-0.3,5-1c1.6-0.7,3.3-1.8,4.9-3.3l6.5,4.9l3.5-4
		l-6-4.6C396.3,76.9,397.5,75.3,398.8,73.5z M380.1,62.4c0.7-0.6,1.6-0.9,2.6-0.9c1.2,0,2.1,0.3,2.7,1c0.7,0.7,1,1.5,1,2.6
		c0,0.9-0.2,1.7-0.6,2.6c-0.4,0.8-1.1,1.6-2.1,2.5h-0.1c-1.6-1.2-2.8-2.2-3.5-3c-0.7-0.8-1.1-1.6-1.1-2.4
		C379,63.8,379.4,63,380.1,62.4z M385.1,80.9c-0.9,0.5-1.9,0.8-3.1,0.8s-2.2-0.4-3.1-1.1c-0.9-0.7-1.3-1.7-1.3-2.9
		c0-0.9,0.2-1.7,0.5-2.4s1-1.5,1.9-2.4c1.4,1.1,2.7,2.1,4.1,3.2c1.4,1,2.6,1.9,3.5,2.7C386.9,79.6,386,80.3,385.1,80.9z"/>
	<path fill="#FFFFFF" d="M312.8,71.1C312.8,71.1,312.8,71.2,312.8,71.1L312.8,71.1L312.8,71.1z"/>
	<path fill="#FFFFFF" d="M361.8,60.9c-1.3-1.2-2.8-2.2-4.5-2.8c-1.7-0.6-3.6-0.9-5.6-0.9c-2.1,0-4,0.3-5.7,1
		c-1.7,0.6-3.2,1.6-4.5,2.9c-1.4,1.4-2.4,3-3.1,4.7c-0.7,1.8-1,3.7-1,5.8c0,2.2,0.4,4.3,1.2,6.2c0.8,1.9,1.9,3.5,3.4,4.8
		c1.3,1.2,2.7,2,4.4,2.6c1.6,0.6,3.4,0.9,5.3,0.9c1.9,0,3.7-0.3,5.4-0.9c1.6-0.6,3.2-1.5,4.5-2.8c1.4-1.3,2.5-2.9,3.3-4.7
		c0.8-1.8,1.2-3.8,1.2-6c0-2.1-0.3-4.1-1-6C364.4,63.9,363.3,62.3,361.8,60.9z M358.5,75.9c-0.5,1.2-1.2,2.2-2,3
		c-0.7,0.6-1.4,1.1-2.2,1.4s-1.7,0.5-2.6,0.5c-0.9,0-1.8-0.2-2.6-0.5c-0.8-0.4-1.5-0.8-2.1-1.4c-0.9-0.8-1.6-1.9-2.1-3.1
		c-0.5-1.3-0.7-2.6-0.7-4.1c0-1.3,0.2-2.6,0.7-3.9s1.2-2.4,2-3.2c0.7-0.7,1.4-1.2,2.2-1.5c0.8-0.3,1.7-0.5,2.6-0.5
		c1,0,1.8,0.2,2.6,0.5c0.8,0.3,1.5,0.7,2.1,1.3c0.9,0.9,1.6,2,2.1,3.4c0.5,1.4,0.7,2.7,0.7,4.1C359.2,73.3,358.9,74.6,358.5,75.9z"
		/>
	<path fill="#FFFFFF" d="M265.3,85.8c0.1-0.4,0.4-1.4,1-2.9c0.5-1.5,1.2-3.3,2-5.2h10.4c0.8,1.9,1.4,3.7,2,5.2c0.5,1.6,0.9,2.6,1,3
		l6.7-2.2c-0.2-0.4-1.5-3.5-3.9-9.2c-2.4-5.7-4.9-11.3-7.2-16.8h-6.9c-2.3,5.2-4.6,10.6-7.1,16.3c-2.5,5.6-3.9,8.9-4.3,9.7
		L265.3,85.8z M271.7,69c0.7-1.9,1.3-3.6,1.8-4.9h0.1c0.6,1.6,1.2,3.2,1.8,4.9c0.6,1.7,1.2,3.2,1.7,4.6H270
		C270.4,72.5,271,70.9,271.7,69z"/>
	<path fill="#FFFFFF" d="M335.9,78.7c-1.6-1.8-3.1-3.6-4.5-5.4v-0.1c1-0.6,2-1.6,3-2.8c1-1.3,1.5-2.8,1.5-4.5c0-1.5-0.5-2.9-1.4-4.1
		c-0.9-1.3-2.3-2.2-4.2-2.8c-1.3-0.5-2.7-0.8-4.2-0.9s-3.3-0.2-5.3-0.2c-1.1,0-2.3,0-3.5,0c-1.3,0-2.1,0-2.5,0
		c0.1,3.8,0.1,6.7,0.1,8.7c0,2.1,0,3.6,0,4.7c0,4.1,0,7.2,0,9.3c-0.1,2.1-0.1,3.7-0.1,4.8h6.8c0-1.2,0-3.1,0-5.7c0-2.7,0-5.1,0-7.3
		c0-1.4,0-2.9,0-4.6s0-3.4,0-5h0.4h0.8c0.6,0,1.2,0,1.9,0.1c0.7,0.1,1.3,0.2,1.9,0.5c0.8,0.4,1.4,0.8,1.8,1.5
		c0.4,0.6,0.6,1.4,0.6,2.2s-0.1,1.5-0.4,2.1c-0.2,0.6-0.6,1.1-1.1,1.6s-1.1,0.9-1.8,1.3c-0.8,0.4-1.4,0.6-1.8,0.7l-0.1,0.4
		c3.1,4,5.3,6.9,6.8,8.8c1.5,1.9,2.5,3.2,3,3.9l6.2-2.4C338.9,82.1,337.6,80.5,335.9,78.7z"/>
	<path fill="#FFFFFF" d="M519.5,65c-1-1.9-2.5-3.5-4.6-4.8c-1.8-1.1-3.9-2-6.2-2.5c-2.4-0.5-5.1-0.8-8.2-0.8c-0.7,0-1.8,0-3.5,0
		c-1.6,0-2.6,0-2.8,0c0.1,2.9,0.1,5.6,0.1,8c0,2.4,0,4.4,0,6c0,3.9,0,7.2,0,10.1c0,2.9,0,4.4,0,4.5c0.2,0,1.1,0.1,2.7,0.1
		c1.6,0.1,3.1,0.1,4.4,0.1c2.8,0,5.3-0.3,7.4-0.8c2.2-0.5,4.1-1.3,5.8-2.3c2-1.2,3.6-2.7,4.8-4.6c1.2-1.9,1.8-4.1,1.8-6.6
		C521.2,69,520.7,66.8,519.5,65z M513,75.3c-0.7,1.1-1.8,2.2-3.2,3c-0.9,0.5-2.1,1-3.5,1.3c-1.5,0.3-2.8,0.5-4.1,0.5h-0.4h-0.3
		c0-2.9,0-5.2,0-6.8v-3.6v-3.2c0-1.3,0-2.7,0-4.1h0.3h0.5c1.2,0,2.6,0.1,4,0.4c1.4,0.3,2.7,0.8,3.9,1.5c1.3,0.8,2.3,1.8,2.9,3
		c0.6,1.2,0.9,2.5,0.9,3.9C514,72.7,513.6,74.1,513,75.3z"/>
	<path fill="#FFFFFF" d="M436.4,82.8c1.3,1.2,2.9,2.1,4.6,2.7c1.7,0.6,3.5,0.9,5.5,0.9s3.9-0.3,5.6-0.9c1.7-0.6,3.3-1.6,4.7-2.9
		c1.5-1.4,2.7-3.1,3.5-5c0.8-1.9,1.2-4,1.2-6.3c0-2.2-0.4-4.3-1.1-6.2c-0.7-1.9-1.9-3.6-3.4-5c-1.3-1.3-2.9-2.2-4.7-2.9
		c-1.8-0.7-3.7-1-5.8-1c-2.1,0-4.1,0.4-5.9,1.1s-3.4,1.8-4.7,3.1c-1.5,1.5-2.6,3.1-3.3,4.9s-1.1,3.8-1.1,6c0,2.4,0.4,4.5,1.3,6.5
		C433.7,79.8,434.9,81.4,436.4,82.8z M439.3,67.1c0.5-1.3,1.2-2.4,2.1-3.3c0.7-0.6,1.5-1.2,2.3-1.5c0.8-0.3,1.7-0.5,2.7-0.5
		s1.9,0.2,2.7,0.5c0.9,0.3,1.6,0.8,2.2,1.4c1,0.9,1.7,2.1,2.2,3.5c0.5,1.4,0.7,2.9,0.7,4.3c0,1.4-0.2,2.8-0.8,4
		c-0.5,1.3-1.2,2.4-2.1,3.2c-0.7,0.7-1.5,1.2-2.3,1.5c-0.9,0.3-1.7,0.5-2.7,0.5c-0.9,0-1.9-0.1-2.7-0.5c-0.8-0.3-1.6-0.8-2.2-1.4
		c-0.9-0.9-1.6-2-2.1-3.3c-0.5-1.3-0.7-2.8-0.7-4.3C438.6,69.8,438.8,68.4,439.3,67.1z"/>
	<path fill="#FFFFFF" d="M488.4,60.1c-1.3-1.3-2.9-2.2-4.7-2.9c-1.8-0.7-3.7-1-5.8-1c-2.1,0-4.1,0.4-5.9,1.1
		c-1.8,0.7-3.4,1.8-4.7,3.1c-1.5,1.5-2.6,3.1-3.3,4.9s-1.1,3.8-1.1,6c0,2.4,0.4,4.5,1.3,6.5c0.9,2,2.1,3.6,3.6,5
		c1.3,1.2,2.9,2.1,4.6,2.7c1.7,0.6,3.5,0.9,5.5,0.9s3.9-0.3,5.6-0.9c1.7-0.6,3.3-1.6,4.7-2.9c1.5-1.4,2.7-3.1,3.5-5s1.2-4,1.2-6.3
		c0-2.2-0.3-4.3-1.1-6.2C491.1,63.2,489.9,61.5,488.4,60.1z M484.9,75.5c-0.5,1.3-1.2,2.4-2.1,3.2c-0.7,0.7-1.5,1.2-2.3,1.5
		c-0.8,0.3-1.7,0.5-2.7,0.5s-1.9-0.1-2.7-0.5c-0.8-0.3-1.6-0.8-2.2-1.4c-0.9-0.9-1.6-2-2.1-3.3c-0.5-1.3-0.7-2.8-0.7-4.3
		c0-1.4,0.2-2.8,0.7-4.1s1.2-2.4,2.1-3.3c0.7-0.6,1.5-1.2,2.3-1.5c0.8-0.3,1.7-0.5,2.7-0.5s1.9,0.2,2.7,0.5c0.9,0.3,1.6,0.8,2.2,1.4
		c1,0.9,1.7,2.1,2.2,3.5c0.5,1.4,0.7,2.9,0.7,4.3C485.7,72.9,485.4,74.3,484.9,75.5z"/>
	<path fill="#FFFFFF" d="M411,81.1c-0.1,2.1-0.1,3.6-0.1,4.6h7.1c0-1.4,0-3.1,0-5c0-2,0-4.1,0-6.4c0.4,0,1.2,0,2.2,0s1.8,0,2.5,0
		c1.2,0,2.8,0,4.7,0c1.8,0,3,0,3.4,0v-4.6c-0.4,0-1.5,0-3.1,0c-1.7,0-3.3,0-5,0c-0.8,0-1.7,0-2.8,0c-1.1,0-1.9,0-2.4,0
		c0-1.1,0-2.3,0-3.6c0-1.4,0-2.5,0-3.6c0.7,0,1.6,0,2.8,0s2.2,0,3.2,0c1.6,0,3.1,0,4.6,0s2.5,0,2.9,0h0.2v-5.3c-0.5,0-1.8,0-4,0
		s-4.4,0-6.7,0c-2,0-3.9,0-5.6,0s-3,0-4,0c0.1,2.6,0.1,5.2,0.1,7.7c0,2.6,0,4.7,0,6.3C411,75.7,411,79,411,81.1z"/>
	<path fill="#FFFFFF" d="M269,93.4c-0.8-0.4-1.7-0.6-2.8-0.8c-1.1-0.1-2.6-0.2-4.4-0.2c-0.4,0-0.9,0-1.4,0s-1,0-1.4,0
		c0,1.6,0,3,0,4.4c0,1.4,0,2.5,0,3.5c0,2.7,0,4.8,0,6.1c0,1.4,0,2.4,0,3.2h4.2v-4.8c0.8,0,1.7-0.1,2.6-0.2c0.8-0.1,1.6-0.3,2.3-0.6
		c1.3-0.4,2.3-1.1,3-2.1c0.7-0.9,1.1-2,1.1-3.3c0-1.1-0.3-2.1-0.8-3.2C270.9,94.6,270.1,93.9,269,93.4z M267.4,100.6
		c-0.3,0.4-0.8,0.8-1.4,1.1c-0.3,0.2-0.7,0.3-1.2,0.4s-1,0.1-1.4,0.1h-0.2H263V101v-1.9c0-0.5,0-1.2,0-2.1c0-0.9,0-1.4,0-1.5h0.2
		h0.2c0.5,0,0.9,0.1,1.4,0.1c0.5,0.1,0.9,0.2,1.3,0.4c0.6,0.3,1,0.7,1.3,1.2s0.4,1,0.4,1.7C267.8,99.7,267.7,100.3,267.4,100.6z"/>
	<path fill="#FFFFFF" d="M283.6,102.1L283.6,102.1c0.7-0.4,1.3-1,1.9-1.8c0.6-0.8,0.9-1.7,0.9-2.8c0-1-0.3-1.8-0.9-2.6
		c-0.5-0.7-1.4-1.3-2.6-1.7c-0.8-0.2-1.7-0.4-2.6-0.5c-0.9-0.1-2-0.1-3.3-0.1c-0.7,0-1.4,0-2.2,0c-0.7,0-1.3,0-1.5,0
		c0,2.3,0,4.1,0,5.4c0,1.2,0,2.2,0,2.9c0,2.6,0,4.5,0,5.8s0,2.3,0,3h4.2c0-0.8,0-2,0-3.6c0-1.7,0-3.2,0-4.6c0-0.9,0-1.8,0-2.9
		c0-1,0-2.1,0-3.1h0.2h0.5c0.4,0,0.8,0.1,1.2,0.1c0.4,0,0.8,0.1,1.2,0.3c0.5,0.2,0.8,0.5,1.1,0.9c0.3,0.4,0.4,0.9,0.4,1.4
		s0,1-0.2,1.3c-0.1,0.4-0.4,0.7-0.7,1c-0.4,0.3-0.7,0.6-1.2,0.8c-0.4,0.2-0.8,0.3-1.1,0.4l-0.1,0.3c1.9,2.5,3.3,4.3,4.2,5.5
		c1,1.2,1.6,2,1.9,2.5l3.9-1.5c-0.6-0.8-1.4-1.8-2.4-3C285.4,104.4,284.5,103.2,283.6,102.1z"/>
	<path fill="#FFFFFF" d="M302.6,94.6c-0.8-0.7-1.7-1.3-2.8-1.7c-1.1-0.4-2.2-0.6-3.5-0.6c-1.3,0-2.5,0.2-3.6,0.6
		c-1.1,0.4-2,1-2.8,1.8c-0.9,0.8-1.6,1.8-2,2.9c-0.4,1.1-0.6,2.3-0.6,3.6c0,1.4,0.3,2.7,0.8,3.9s1.2,2.2,2.1,3
		c0.8,0.7,1.8,1.2,2.8,1.6c1,0.3,2.1,0.5,3.3,0.5s2.4-0.2,3.4-0.6c1-0.3,2-0.9,2.8-1.7c0.9-0.9,1.6-1.9,2.1-3
		c0.5-1.2,0.7-2.4,0.7-3.8c0-1.3-0.3-2.5-0.6-3.5C304.2,96.5,303.5,95.5,302.6,94.6z M300.4,103.9c-0.3,0.8-0.7,1.4-1.2,1.9
		c-0.4,0.4-0.8,0.7-1.3,0.9c-0.5,0.2-1,0.3-1.6,0.3c-0.6,0-1.1-0.1-1.6-0.3c-0.5-0.3-0.9-0.5-1.3-0.9c-0.6-0.6-1-1.2-1.3-2
		s-0.4-1.7-0.4-2.6c0-0.9,0.1-1.7,0.4-2.5c0.3-0.8,0.7-1.5,1.2-2c0.4-0.4,0.9-0.7,1.4-0.9s1-0.3,1.6-0.3c0.6,0,1.1,0.1,1.6,0.3
		s0.9,0.4,1.3,0.8c0.6,0.6,1,1.3,1.3,2.1c0.3,0.9,0.4,1.7,0.4,2.6C300.9,102.1,300.8,103,300.4,103.9z"/>
	<path fill="#FFFFFF" d="M320,106.5v-0.1C320,106.4,320,106.5,320,106.5L320,106.5z"/>
	<path fill="#FFFFFF" d="M319.2,106.5c-0.8,0-1.7,0-2.7-0.2s-1.9-0.4-2.7-0.8c-1-0.4-1.8-1-2.4-1.7c-0.5-0.8-0.8-1.6-0.8-2.5
		c0-1,0.3-1.8,0.9-2.5c0.6-0.7,1.4-1.3,2.4-1.7c0.8-0.3,1.7-0.5,2.7-0.7c1-0.1,1.9-0.2,2.6-0.2h0.3h0.3c-0.1-0.8-0.2-1.4-0.3-2.1
		c-0.1-0.6-0.2-1.1-0.2-1.5H319h-0.3c-1.9,0-3.7,0.2-5.4,0.7c-1.7,0.5-3.2,1.2-4.3,2.2c-0.9,0.7-1.6,1.5-2.1,2.5
		c-0.5,0.9-0.7,2-0.7,3.2c0,1.3,0.2,2.4,0.7,3.4s1.2,1.9,2.1,2.6c1.1,0.9,2.5,1.6,4.2,2.1s3.6,0.7,5.7,0.7h0.3h0.3
		c0-0.7,0.1-1.4,0.2-2c0.1-0.6,0.2-1,0.3-1.5h-0.4H319.2z"/>
	<path fill="#FFFFFF" d="M331.7,106.6c-0.7,0-1.6,0-2.6,0c-0.7,0-1.4,0-2.3,0c-0.8,0-1.5,0-2,0c0-0.4,0-1,0-1.7s0-1.6,0-2.6
		c0.4,0,1,0,1.7,0s1.3,0,1.7,0c0.8,0,1.8,0,2.9,0c1.2,0,1.8,0,2,0v-2.5c-0.2,0-0.8,0-1.8,0s-2,0-3.1,0c-0.4,0-1,0-1.7,0
		s-1.3,0-1.7,0c0-0.5,0-1.2,0-1.9s0-1.4,0-2c0.4,0,1,0,1.8,0s1.4,0,2,0c1,0,1.9,0,2.9,0s1.6,0,1.7,0v-3.2c-0.2,0-1,0-2.4,0
		c-1.4,0-2.8,0-4.3,0c-1.1,0-2.1,0-3.2,0c-1.1,0-1.9,0-2.5,0c0,1.5,0,3.1,0,4.6s0,2.7,0,3.7c0,2.4,0,4.3,0,5.8s0,2.4,0,2.9
		c0.6,0,1.4,0,2.5,0c1.2,0,2.3,0,3.5,0c1.3,0,2.7,0,4.1,0c1.1,0,1.9,0,2.3,0v-3.1C333,106.6,332.5,106.6,331.7,106.6z"/>
	<path fill="#FFFFFF" d="M343.8,101c-0.5-0.3-1-0.6-1.5-0.8c-0.6-0.3-1-0.5-1.4-0.7c-0.6-0.3-1.1-0.6-1.3-0.9
		c-0.3-0.3-0.4-0.6-0.4-0.9c0-0.4,0.1-0.7,0.3-0.9c0.2-0.2,0.5-0.4,0.9-0.5c0.4-0.1,0.9-0.2,1.3-0.3c0.5-0.1,0.9-0.1,1.4-0.1
		c0.7,0,1.2,0.1,1.7,0.1c0.4,0.1,0.8,0.1,1,0.1l-0.4-3.4c-0.1-0.1-0.5-0.1-1-0.1s-1.2,0-1.9,0c-1.6,0-2.9,0.2-4.1,0.5
		c-1.2,0.3-2.1,0.8-2.8,1.4c-0.5,0.3-0.8,0.8-1.1,1.3c-0.3,0.6-0.4,1.1-0.4,1.8c0,0.8,0.1,1.5,0.5,2.1c0.4,0.6,1,1.2,1.8,1.7
		c0.5,0.3,1,0.5,1.6,0.8c0.7,0.3,1.1,0.5,1.5,0.7c0.5,0.3,1,0.6,1.2,0.9c0.3,0.2,0.4,0.6,0.4,1c0,0.3-0.1,0.6-0.3,0.9
		c-0.2,0.2-0.6,0.4-1.1,0.6c-0.4,0.1-0.9,0.2-1.5,0.3c-0.6,0.1-1.1,0.1-1.5,0.1c-0.5,0-1.1-0.1-1.8-0.1c-0.7-0.1-1.1-0.1-1.2-0.1
		l0.4,3.4c0.2,0,0.7,0.1,1.3,0.1c0.7,0,1.4,0,2.2,0c1.1,0,2.2-0.1,3.3-0.3c1-0.2,2-0.5,2.7-0.9c0.8-0.5,1.5-1,2-1.7s0.7-1.5,0.7-2.4
		c0-0.8-0.2-1.6-0.7-2C345.2,102,344.6,101.5,343.8,101z"/>
	<path fill="#FFFFFF" d="M357.5,101c-0.5-0.3-1-0.6-1.5-0.8c-0.6-0.3-1-0.5-1.4-0.7c-0.6-0.3-1.1-0.6-1.3-0.9
		c-0.3-0.3-0.4-0.6-0.4-0.9c0-0.4,0.1-0.7,0.3-0.9c0.2-0.2,0.5-0.4,0.9-0.5c0.4-0.1,0.9-0.2,1.3-0.3c0.5-0.1,0.9-0.1,1.4-0.1
		c0.7,0,1.2,0.1,1.7,0.1c0.5,0.1,0.8,0.1,1,0.1l-0.4-3.4c-0.1-0.1-0.5-0.1-1-0.1s-1.2,0-1.9,0c-1.6,0-2.9,0.2-4.1,0.5
		c-1.1,0.3-2,0.8-2.7,1.4c-0.5,0.3-0.8,0.8-1.1,1.3c-0.3,0.6-0.4,1.1-0.4,1.8c0,0.8,0.1,1.5,0.5,2.1c0.4,0.6,1,1.2,1.8,1.7
		c0.5,0.3,1,0.5,1.6,0.8c0.6,0.3,1,0.5,1.4,0.7c0.6,0.3,1,0.6,1.2,0.9c0.3,0.2,0.4,0.6,0.4,1c0,0.3-0.1,0.6-0.3,0.9
		c-0.2,0.2-0.6,0.4-1.1,0.6c-0.4,0.1-0.9,0.2-1.5,0.3c-0.6,0.1-1.1,0.1-1.5,0.1c-0.5,0-1.1-0.1-1.8-0.1c-0.7-0.1-1.1-0.1-1.2-0.1
		l0.4,3.4c0.2,0,0.7,0.1,1.3,0.1c0.7,0,1.4,0,2.2,0c1.1,0,2.2-0.1,3.3-0.3c1-0.2,2-0.5,2.7-0.9c0.8-0.5,1.5-1,2-1.7s0.7-1.5,0.7-2.4
		c0-0.8-0.2-1.6-0.7-2C358.9,102,358.3,101.5,357.5,101z"/>
	<path fill="#FFFFFF" d="M360.8,97.2c0,1.6,0,2.8,0,3.8c0,2.4,0,4.2,0,5.6c0,1.3,0,2.4,0,3.1h4.2c0-1,0-2.1,0-3.4s0-3.2,0-5.6
		c0-1.2,0-2.6,0-4.1s0-2.8,0-4h-4.2C360.8,94.1,360.8,95.7,360.8,97.2z"/>
	<path fill="#FFFFFF" d="M378.9,98.2c0,2.3,0,4,0,5.2h-0.1c-2-2.4-3.9-4.7-5.8-7c-1.8-2.3-2.9-3.6-3.3-4.1l-3.3,1.3c0,1.5,0,3,0,4.4
		c0,1.4,0,2.5,0,3.4c0,2.1,0,4,0,5.4c0,1.4,0,2.4,0,2.8h3.9c0-0.6,0-2.2,0-4.8c0-2.6,0-4.9,0-6.7h0.1c0.4,0.5,1.6,1.9,3.4,4.1
		c1.8,2.3,3.8,4.8,6,7.7l3.1-1.2c0-0.4,0-1.4,0-2.9s0-3.3,0-5.2c0-0.8,0-2,0-3.5s0-3,0-4.5h-4C378.9,94,378.9,95.9,378.9,98.2z"/>
	<path fill="#FFFFFF" d="M394.9,105c0,1,0,1.5,0,1.7c-0.7,0-1.5-0.1-2.2-0.3c-0.7-0.1-1.4-0.4-2-0.7c-0.8-0.4-1.4-1-1.9-1.7
		c-0.5-0.7-0.7-1.6-0.7-2.7c0-0.9,0.3-1.8,0.9-2.6c0.6-0.8,1.4-1.5,2.5-1.9c0.8-0.3,1.7-0.6,2.7-0.7c1-0.1,1.9-0.2,2.8-0.2h0.6h0.5
		l-0.5-3.5c-0.2,0-0.3,0-0.5,0s-0.4,0-0.6,0c-1.7,0-3.3,0.2-4.8,0.5c-1.5,0.4-2.7,0.9-3.8,1.5c-1.4,0.8-2.4,1.8-3.1,2.9
		c-0.7,1.2-1.1,2.5-1.1,3.9c0,1.3,0.3,2.5,0.8,3.5c0.6,1,1.2,1.8,2.1,2.5c1.3,1,2.8,1.7,4.3,2.1c1.5,0.4,3.3,0.6,5.2,0.6
		c0.5,0,1-0.1,1.7-0.1s1.1-0.1,1.2-0.1c0-0.6,0-1.4,0-2.2c0-0.8,0-1.6,0-2.4c0-0.6,0-1.3,0-2.1c0-0.8,0-1.6,0-2.2v-0.1h-4.1
		C394.9,102.6,394.9,104,394.9,105z"/>
	<path fill="#FFFFFF" d="M420.1,107.1c-0.7,0-1.5,0-2.4,0c-0.9,0-1.6,0-2.1,0c0-0.5,0-1.1,0-1.8c0-0.7,0-1.6,0-2.6
		c0.5,0,1.1,0,1.8,0c0.8,0,1.4,0,1.8,0c0.8,0,1.8,0,3,0c1.1,0,1.8,0,2,0v-2.6c-0.3,0-0.9,0-1.9,0s-2.1,0-3.2,0c-0.5,0-1.1,0-1.8,0
		c-0.8,0-1.3,0-1.8,0c0-0.6,0-1.3,0-2s0-1.4,0-2.1c0.4,0,1,0,1.8,0c0.8,0,1.5,0,2.1,0c1,0,2,0,3,0s1.6,0,1.7,0v-3.3
		c-0.2,0-1,0-2.5,0s-3,0-4.5,0c-1.1,0-2.2,0-3.3,0c-1.1,0-2,0-2.6,0c0,1.6,0,3.2,0,4.8c0,1.6,0,2.9,0,3.9c0,2.4,0,4.3,0,5.9
		c0,1.5,0,2.5,0,3c0.5,0,1.3,0,2.5,0s2.4,0,3.6,0c1.4,0,2.9,0,4.3,0c1.4,0,2.3,0,2.6,0h0.2v-3.2c-0.2,0-0.8,0-1.6,0
		C422,107.1,421.1,107.1,420.1,107.1z"/>
	<path fill="#FFFFFF" d="M436.8,101.2L436.8,101.2c1-1.6,2.1-3.2,3.2-4.7c1.1-1.5,1.8-2.4,2-2.8l-4-1.5c-0.1,0.3-0.6,1.1-1.5,2.4
		c-0.8,1.3-1.7,2.6-2.7,4.1h-0.1c-1.1-1.6-2-2.9-2.8-4.1c-0.8-1.1-1.3-1.9-1.5-2.4l-4.1,1.5c0.3,0.5,1,1.5,2.1,3
		c1.1,1.5,2.1,3,3.1,4.5v0.1c-1.7,2.3-2.9,4.1-3.8,5.3c-0.9,1.3-1.5,2.1-1.7,2.5l4,1.5c0.2-0.4,0.7-1.3,1.6-2.6
		c0.9-1.4,1.9-2.8,3-4.4h0.1c1.3,2,2.4,3.5,3.1,4.6c0.7,1.1,1.2,1.9,1.5,2.4l4.1-1.6c-0.5-0.8-1.2-1.9-2.3-3.1
		C439.2,104.5,438.1,103,436.8,101.2z"/>
	<path fill="#FFFFFF" d="M453.5,93.8c-0.8-0.4-1.8-0.7-2.9-0.9c-1.1-0.2-2.6-0.3-4.5-0.3c-0.4,0-0.9,0-1.4,0s-1,0-1.4,0
		c0,1.6,0,3.1,0,4.5c0,1.4,0,2.6,0,3.6c0,2.8,0,4.9,0,6.3c0,1.4,0,2.5,0,3.3h4.4v-4.9c0.9,0,1.8-0.1,2.7-0.2
		c0.9-0.1,1.7-0.3,2.4-0.6c1.3-0.5,2.3-1.2,3.1-2.2c0.7-1,1.1-2.2,1.1-3.5c0-1.2-0.3-2.3-1-3C455.4,95,454.6,94.3,453.5,93.8z
		 M452,100.9c-0.3,0.5-0.8,0.9-1.4,1.2c-0.4,0.2-0.8,0.3-1.3,0.4c-0.5,0.1-1,0.1-1.4,0.1h-0.2h-0.2v-1.3v-2c0-0.6,0-1.3,0-2.2
		s0-1.4,0-1.5h0.2h0.2c0.5,0,0.9,0.1,1.4,0.1c0.4,0.1,0.9,0.2,1.3,0.4c0.6,0.3,1.1,0.7,1.4,1.2s0.5,1.1,0.5,1.8
		C452.5,99.9,452.3,100.6,452,100.9z"/>
	<path fill="#FFFFFF" d="M473.2,94.5c-0.8-0.8-1.8-1.4-2.9-1.8c-1.1-0.4-2.3-0.6-3.6-0.6c-1.3,0-2.6,0.3-3.7,0.7
		c-1.1,0.4-2.1,1.1-2.9,1.9c-0.9,0.9-1.6,1.9-2,3c-0.5,1.1-0.7,2.3-0.7,3.7c0,1.4,0.3,2.8,0.8,4c0.5,1.2,1.3,2.3,2.2,3.1
		c0.9,0.8,1.8,1.3,2.9,1.7c1,0.4,2.2,0.6,3.4,0.6c1.3,0,2.4-0.2,3.5-0.6c1.1-0.4,2-1,2.9-1.8c0.9-0.9,1.6-1.9,2.1-3.1
		s0.8-2.5,0.8-3.9c0-1.3-0.2-2.6-0.7-3.8C474.8,96.4,474.1,95.4,473.2,94.5z M471.1,104.1c-0.3,0.8-0.8,1.5-1.3,2
		c-0.4,0.4-0.9,0.7-1.4,0.9c-0.6,0.2-1.1,0.3-1.7,0.3c-0.6,0-1.2-0.1-1.7-0.3c-0.6-0.2-1-0.5-1.4-0.9c-0.6-0.5-1-1.2-1.3-2
		s-0.5-1.6-0.5-2.6c0-0.8,0.2-1.7,0.5-2.5c0.3-0.9,0.8-1.6,1.3-2.1c0.4-0.5,0.9-0.8,1.4-1s1.1-0.3,1.7-0.3c0.6,0,1.2,0.1,1.7,0.3
		s0.9,0.5,1.3,0.9c0.6,0.6,1.1,1.3,1.4,2.2c0.3,0.8,0.4,1.7,0.4,2.6S471.3,103.3,471.1,104.1z"/>
	<rect x="243.5" y="35.7" fill="#FFFFFF" width="1.6" height="73.9"/>
	<path fill="#FFFFFF" d="M48.9,88.5c0.2-0.2,0.1-0.4,0-0.3c-3,0.3-5.5-2-8.5-2.3c-2-0.2-3.9,0.2-5.8,0.6c-3.1,0.7-5.4,1.7-8.4,0.6
		c-1.8-0.6-3.4-0.7-5.2-0.1c-1,0.3-1.8,0.8-2.7,1.3c-1.1,0.6-1.5,0.9-2.4,0.6c-0.2-0.1-1.2-0.9-1.5-1c-0.7-0.3-1.6-0.4-2.4-0.5
		c-2-0.1-4.2,0.5-6.1,0.8c-2.2,0.4-4.4,0.4-5.7,2.1c-0.3,0.4,0,0.8,0.3,1.1c1.7,1.1,3.9,0.6,6,0C6,98.8,16.2,113.2,21.4,107
		c5.5-6.4,23.3-16.2,25.1-17.8C47.3,89.2,48.1,89,48.9,88.5z"/>
	<path fill="#FFFFFF" d="M36.7,68.1l2.8,14.3L51.6,81c0.5,1.4,1.2,2.7,1.8,4.1c2.9-1.4,6-2.9,9.3-4.3c-1.6-3-2.8-6.3-3.4-9.7
		c-3.7-19.2,8.8-37.8,28-41.5c9.3-1.8,18.7,0.1,26.5,5.4c7.8,5.3,13.2,13.3,15,22.6c0.3,1.6,0.5,3.2,0.6,4.9
		c2.1-0.2,4.1-0.4,6.2-0.6c1.4-0.1,2.7-0.2,3.9-0.3v0.2h2.1V14c0-0.1,0.2-0.4,0.2-0.4c0.3-0.2,0.6-0.2,0.8-0.2h1.8
		c0.4,0,0.9,0,1.3,0c0.3,0,0.6,0,0.9,0c0.3,0,0.7,0,1,0h0.1c1.3,0,2.7,0,4,0h0.2c1.3,0,2.6,0,3.9,0h0.1c0.4,0,0.7,0,1.1,0
		c0.3,0,0.7,0,1,0h0.3c0.9,0,1.9,0,2.9,0h0.1c0.7,0,1.3,0,2,0c0.2,0,0.3,0,0.4,0h0.1l0.4,0.1l0.1,0.8l-0.4,0.4
		c-0.2,0.1-0.3,0.2-0.4,0.3l-0.9,0.7c-1.7,1.4-3.3,2.7-5,4l-0.1,0.1V20c0,6.7,0,13.3,0,20v22h2.1V39.6v-9.1v-4.7v-2v-1h3.4
		c0.3,0,0.6,0,0.9,0h3.9h0.1c0.6,0,1.3,0,1.9,0h2.9c0.7,0,1.4,0,2.1,0h12.5v8.9v15c-0.1,0.1-0.1,0.1-0.3,0.1c-0.3,0-0.6,0-0.9,0
		h-4.5l1.4-2.7c0.2-0.4,0-1-0.4-1.2c-0.4-0.2-1,0-1.2,0.4l-1.8,3.5h-1l-0.4-0.6c-0.3-0.3-0.9-0.4-1.3-0.1c0,0-0.1,0-0.1,0.1
		l-0.4,0.5h-1l-2.1-4.2c-0.2-0.3-0.3-0.6-0.3-0.9c-0.1-0.6,0.1-1.3,0.5-1.8c0.4-0.6,1.1-0.9,1.8-0.9c0.4,0,0.8,0.2,1.1,0.4
		c0.3,0.2,0.7,0.3,1,0.3h0.1c0.3-0.1,0.7-0.2,1-0.4c0.3-0.3,0.7-0.4,1.1-0.4c0.7,0,1.3,0.4,1.8,0.9c0.4,0.5,0.6,1.1,0.5,1.8
		c0,0.3,0.1,0.5,0.2,0.7c0.2,0.1,0.4,0.3,0.6,0.3c0.5,0.1,0.9-0.2,1-0.7c0.2-1.1-0.1-2.3-0.9-3.2c-0.3-0.3-0.6-0.6-1-0.8
		c0.6-0.6,0.9-1.4,0.9-2.2c0-0.5-0.4-0.9-0.9-0.9h-1.9c-0.9,0-1.7,0.4-2.2,1.1c-0.5-1-1.3-1.8-2.3-2.3c-0.4-0.2-1,0-1.2,0.4
		c-0.1,0.2-0.1,0.5,0,0.7c0,0.2,0.2,0.4,0.4,0.5c0.8,0.4,1.5,1.2,1.8,2.2c-0.4-0.1-0.7-0.2-1.1-0.2c-1.2,0-2.4,0.6-3.2,1.5
		c-0.7,0.8-1.1,2-0.9,3.2c0.1,0.5,0.3,0.9,0.5,1.4l1.7,3.4H166l0.5,2.3c5.6,0,14.8,0,20.5,0c0.1,0,0.2,0,0.2,0.1v2.1
		c-0.1,0.1-0.1,0.1-0.3,0.1h-13.6H173v2.3h1.4c4.2,0,8.4,0,12.6,0c0.1,0,0.2,0,0.2,0.1v2.2c0,0.1-0.1,0.1-0.3,0.1
		c-5.6,0-11.3,0-16.9,0v2.2h6.6h3.3c0,0.2,0,0.3,0,0.4c0,0.1,0,0.2-0.2,0.2c-0.7,0-1.3,0-1.9,0h-0.2V61h7v-2.3c-0.1,0-0.1,0-0.2,0
		c-0.7,0-1.3,0-2,0c-0.2,0-0.2-0.1-0.2-0.2c0-0.1,0-0.3,0-0.4h4.8V61c0.1,0,0.2,0,0.3,0h7.5c2.8,0,5.5,0,8.3,0c0.1,0,0.2,0,0.3,0
		v-2.9h4.8c0,0.1,0,0.3,0,0.4c0,0.2-0.1,0.2-0.2,0.2c-0.7,0-1.3,0-2,0c-0.1,0-0.1,0-0.2,0V61h7v-2.3h-0.2c-0.7,0-1.3,0-1.9,0
		c-0.2,0-0.2,0-0.2-0.2c0-0.2,0-0.3,0-0.4h7.1c0,0.1,0,0.3,0,0.4c0,0.2,0,0.2-0.2,0.2c-0.7,0-1.3,0-2,0c-0.1,0-0.1,0-0.2,0V61h7
		v-2.2c-0.7,0-1.4,0-2.1,0c-0.1,0-0.2,0-0.2-0.2c0-0.1,0-0.3,0-0.4h1.9c0.6-0.1,1.2-0.2,1.7-0.5c0.9-0.4,1.6-1,2.2-1.8
		c0.7-0.9,1.1-1.9,1.2-3c0.1-0.5,0-0.9,0.2-1.5c0-0.6-0.2-1-0.4-1.5c-0.5-1.2-1.4-2.1-2.5-2.7c-0.8-0.4-1.6-0.7-2.5-0.7
		c-1.2,0-2.4,0-3.6,0c-0.3,0-0.3,0.1-0.3-0.3c0-2.9,0-5.8,0-8.7v-0.3H206v0.3c0,2.9,0,5.9,0,8.8c0,0.2-0.1,0.3-0.3,0.3
		c-0.7,0-1.3,0-1.9,0c-0.2,0-0.3,0-0.3-0.1V30.3h-0.2c-0.7,0-1.3,0-1.9,0c-0.2,0-0.2,0-0.2-0.2c0-1.4,0-2.8,0-4.2c0-0.1,0-0.2,0-0.3
		h-11.6v-5.8l-0.1-0.1c-2.1-1.6-4.1-3.3-5.9-4.7c-1.5-1.1-2.9-2.3-4.3-3.4l-2.4-1.9c-0.1-0.1-0.2-0.2-0.4-0.3h-0.1h-0.1
		c-0.1,0-0.1,0-0.2,0c-0.9,0-1.7,0-2.6,0h-0.2c-0.9,0-1.8,0-2.7,0c-0.4,0-0.7-0.1-1.1-0.4c-1-0.8-2.1-1.7-3.1-2.5l-5.9-4.7
		c-0.7-0.6-1.3-1.1-2-1.6l-0.1-0.1h-0.1c-0.9,0-1.8,0-2.7,0c-1,0-1.9,0-2.8,0h-0.1l-0.1,0.1c-1.3,1-2.5,2-3.8,3l-2.5,2
		c-0.8,0.6-1.6,1.3-2.4,1.9c-1.4,1.1-2.9,2.3-4.3,3.4l-0.1,0.1v0.2c0,0.9,0,1.8,0,2.7v16.3l-7.2-8.3l-9.8,7.3c-1.9-1.5-3.9-2.9-6-4
		l3-11.8l-13.8-4.7l-4.9,11.2C98.4,19.1,96,19,93.6,19L90.3,7.1L76,9.8L77.4,22c-2.3,0.9-4.4,2-6.5,3.2l-8.7-8.5l-11,9.6l7.3,9.8
		c-1.5,1.9-2.9,3.9-4,6l-11.8-3L38,52.9l11,4.7c-0.4,2.4-0.5,4.8-0.5,7.2L36.7,68.1z M179.9,36.3h0.7c-0.3,0.4-0.8,0.7-1.3,0.7H179
		C179.1,36.6,179.5,36.3,179.9,36.3z M208.2,39.5c0.7,0,1.4,0,2.1,0c0.2,0,0.2,0,0.2,0.2c0,0.6,0,1.3,0,1.9v0.2h2.3v-0.2
		c0-0.6,0-1.3,0-1.9c0-0.2,0-0.2,0.2-0.2c0.7,0,1.4,0,2.1,0c0.2,0,0.2,0.1,0.2,0.2c0,2.3,0,4.5,0,6.7c0,0.2-0.1,0.2-0.2,0.2
		c-2.3,0-4.5,0-6.8,0c-0.2,0-0.2,0-0.2-0.2c0-2.2,0-4.4-0.1-6.7C208,39.6,208,39.5,208.2,39.5z M203.4,49c0-0.1,0.1-0.1,0.2-0.1
		c5.9,0,11.7,0,17.6,0c1.1,0,2,0.5,2.7,1.4c0.5,0.7,0.7,1.5,0.7,2.3c0,1.4-0.8,2.6-2.2,3.2c-0.4,0.1-0.8,0.2-1.3,0.2
		c-5.8,0-11.5,0-17.3,0c-0.2,0-0.3,0-0.3-0.1v-2.2c0-0.1,0.1-0.1,0.2-0.1c4.2,0,8.4,0,12.6,0h1.3v-2.3h-0.3h-13.6
		c-0.2,0-0.3,0-0.3-0.1V49z M191.8,28.1c0-0.2,0-0.2,0.2-0.2c1.1,0,2.1,0,3.1,0h0.2h0.2c1,0,2.1,0,3.1,0c0.1,0,0.2,0,0.2,0.2
		c0,0.7,0,1.3,0,2c0,0.2,0,0.2-0.2,0.2c-1.1,0-2.1,0-3.2,0c-1.1,0-2.3,0-3.4,0c-0.1,0-0.2,0-0.2-0.2
		C191.8,29.4,191.8,28.7,191.8,28.1z M189.3,57.8v-25c0-0.3,0-0.3,0.3-0.3h11.2c0.3,0,0.3,0,0.3,0.3H201v25v0.6c0,0.3,0,0.3-0.3,0.3
		h-11.1c-0.3,0-0.3,0-0.3-0.3V57.8z M139.5,34.8v12.5l-3.1,0.4c-0.9-2.3-1.9-4.5-3.2-6.5L139.5,34.8z"/>
	<path fill="#FFFFFF" d="M110.7,39.8c-5.2-3.5-11.2-5.2-17.3-5.1c-1.6,0-3.3,0.2-4.9,0.5C72.3,38.4,61.8,54,64.9,70
		c0.6,3,1.6,5.9,3.1,8.5c15.1-6.2,33.7-12.1,54.5-15.2c0.4-0.1,0.8-0.2,1.2-0.3c-0.1-1.4-0.3-2.8-0.5-4.3
		C121.7,50.9,117.2,44.2,110.7,39.8z"/>
	<path fill="#FFFFFF" d="M198.7,34.9h-6.9v9.3h6.9V34.9z M196.3,41.7v0.1h-0.1c-0.3,0-0.7,0-1,0s-0.7,0-1,0h-0.1c0,0,0,0,0-0.1
		c0-1.4,0-2.8-0.2-4.3c0-0.2,0-0.2,0.2-0.2c0.4,0,0.7,0,1,0c0.4,0,0.7,0,1,0c0.1,0,0.2,0,0.2,0.2C196.3,38.8,196.3,40.3,196.3,41.7z
		"/>
	<rect x="191.8" y="46.6" fill="#FFFFFF" width="2.3" height="2.3"/>
	<rect x="196.5" y="46.6" fill="#FFFFFF" width="2.3" height="2.3"/>
	<path fill="#FFFFFF" d="M179.6,39.4c-0.5,0.1-0.9,0.5-0.9,1s0.4,0.9,0.8,0.9c0,0.4,0.3,0.8,0.8,0.8h0.1c0.4,0,0.8-0.3,0.9-0.8
		c0.1-0.5-0.1-0.9-0.4-1.3C180.6,39.6,180.1,39.4,179.6,39.4z"/>
	<rect x="220" y="51.2" fill="#FFFFFF" width="2.3" height="2.3"/>
	<path fill="#FFFFFF" d="M170.7,53.5v-2.2h-2.3V53c0,0.2,0.1,0.3,0.1,0.5H170.7L170.7,53.5z"/>
</g>
</svg>
