<?xml version="1.0" encoding="utf-8"?>
<!-- Generator: Adobe Illustrator 24.0.0, SVG Export Plug-In . SVG Version: 6.00 Build 0)  -->
<svg version="1.1" id="Layer_1" xmlns="http://www.w3.org/2000/svg" xmlns:xlink="http://www.w3.org/1999/xlink" x="0px" y="0px"
	 viewBox="0 0 33.6 19.6" enable-background="new 0 0 33.6 19.6" xml:space="preserve">
<g id="INDIA_3_">
	<g>
		<g>
			<defs>
				<rect id="SVGID_1_" width="33.6" height="19.6"/>
			</defs>
			<clipPath id="SVGID_2_">
				<use xlink:href="#SVGID_1_"  overflow="visible"/>
			</clipPath>
			<rect clip-path="url(#SVGID_2_)" fill="#FFFFFF" width="33.6" height="19.6"/>
			<rect clip-path="url(#SVGID_2_)" fill="#F0953E" width="33.6" height="6.5"/>
			<rect y="13.1" clip-path="url(#SVGID_2_)" fill="#3B8916" width="33.6" height="6.5"/>
			<g clip-path="url(#SVGID_2_)">
				<defs>
					<rect id="SVGID_3_" width="33.6" height="19.6"/>
				</defs>
				<clipPath id="SVGID_4_">
					<use xlink:href="#SVGID_3_"  overflow="visible"/>
				</clipPath>
				<path clip-path="url(#SVGID_4_)" fill="#16007E" d="M16.8,6.9c-1.6,0-2.9,1.3-2.9,2.9c0,1.6,1.3,2.9,2.9,2.9s2.9-1.3,2.9-2.9
					C19.7,8.2,18.4,6.9,16.8,6.9 M16.8,7.1l-0.1,1.5l0.1,0.8l0.1-0.8L16.8,7.1c0.1,0,0.2,0,0.2,0c0,0,0,0,0,0c0,0.1,0.1,0.1,0.1,0.1
					c0.1,0,0.1-0.1,0.1-0.1c0.1,0,0.1,0,0.2,0.1L17,8.6l-0.1,0.8l0.3-0.8l0.3-1.4c0.1,0,0.1,0,0.2,0.1c0,0,0,0,0,0
					c0,0.1,0.1,0.1,0.1,0.1c0,0,0.1,0,0.1-0.1c0.1,0,0.1,0.1,0.2,0.1l-0.8,1.2l-0.4,0.8l0.5-0.7l0.7-1.3c0.1,0,0.1,0.1,0.2,0.1
					c0,0,0,0,0,0.1c0,0.1,0.1,0.1,0.1,0.1c0,0,0.1,0,0.1-0.1c0.1,0.1,0.1,0.1,0.2,0.2l-1.1,1L17,9.6L17.7,9l1-1.1
					C18.7,8,18.8,8,18.8,8.1c0,0,0,0.1,0,0.1c0,0.1,0.1,0.1,0.1,0.1c0,0,0.1,0,0.1,0c0,0.1,0.1,0.1,0.1,0.2l-1.3,0.7l-0.7,0.5
					l0.8-0.4l1.2-0.8c0,0.1,0.1,0.1,0.1,0.2c0,0-0.1,0.1-0.1,0.1c0,0.1,0.1,0.1,0.1,0.1c0,0,0,0,0,0c0,0.1,0,0.1,0.1,0.2l-1.4,0.3
					l-0.8,0.3l0.8-0.1l1.4-0.4c0,0.1,0,0.1,0,0.2c-0.1,0-0.1,0.1-0.1,0.1c0,0.1,0.1,0.1,0.1,0.1c0,0,0,0,0,0c0,0.1,0,0.1,0,0.2
					L18,9.7l-0.8,0.1L18,9.9l1.5-0.1c0,0.1,0,0.2,0,0.2c0,0,0,0,0,0c-0.1,0-0.1,0.1-0.1,0.1s0,0.1,0.1,0.1c0,0.1,0,0.1,0,0.2
					l-0.5-0.2L17.9,10l-0.8-0.1h0h0l0.8,0.3l1.4,0.3c0,0.1,0,0.1-0.1,0.2c0,0,0,0,0,0l0,0c0,0,0,0,0,0c-0.1,0-0.1,0.1-0.1,0.1
					c0,0,0,0,0,0l0,0c0,0,0,0,0,0l0,0c0,0,0,0,0,0l0,0c0,0,0,0,0,0l0,0c0,0,0,0,0,0c0,0.1-0.1,0.1-0.1,0.2l-1.2-0.8h0L17.1,10h0
					l0.4,0.3l0.3,0.2l0,0l1.3,0.7c0,0.1-0.1,0.1-0.1,0.2c0,0,0,0-0.1,0c-0.1,0-0.1,0.1-0.1,0.1c0,0,0,0.1,0,0.1
					c0,0.1-0.1,0.1-0.1,0.2l-1-1.1L17,10l0.5,0.7l1.1,1c-0.1,0.1-0.1,0.1-0.2,0.1c0,0,0,0-0.1,0c-0.1,0-0.1,0.1-0.1,0.1
					c0,0,0,0,0,0.1c-0.1,0-0.1,0.1-0.2,0.1l-0.7-1.3l-0.5-0.7l0,0l0.4,0.8l0.8,1.2c-0.1,0-0.1,0.1-0.2,0.1c0,0-0.1-0.1-0.1-0.1
					c-0.1,0-0.1,0.1-0.1,0.1c0,0,0,0,0,0c-0.1,0-0.1,0-0.2,0.1l-0.3-1.4l-0.3-0.8v0l0.1,0.8l0.5,1.4c-0.1,0-0.1,0-0.2,0
					c0-0.1-0.1-0.1-0.1-0.1c-0.1,0-0.1,0.1-0.1,0.1c0,0,0,0,0,0c-0.1,0-0.1,0-0.2,0l0.1-1.5l-0.1-0.8L16.7,11l0.1,1.5
					c-0.1,0-0.2,0-0.2,0c0,0,0,0,0,0c0-0.1-0.1-0.1-0.1-0.1c-0.1,0-0.1,0-0.1,0.1c-0.1,0-0.1,0-0.2,0l0.5-1.4l0.1-0.8l-0.3,0.8
					l-0.3,1.4c-0.1,0-0.1,0-0.2-0.1c0,0,0,0,0,0c0-0.1-0.1-0.1-0.1-0.1c-0.1,0-0.1,0-0.1,0.1c-0.1,0-0.1-0.1-0.2-0.1l0.8-1.2
					l0.4-0.8l-0.5,0.7l-0.7,1.3c-0.1,0-0.1-0.1-0.2-0.1c0,0,0,0,0-0.1c0-0.1-0.1-0.1-0.1-0.1c0,0-0.1,0-0.1,0
					c-0.1-0.1-0.1-0.1-0.2-0.1l1.1-1l0.5-0.7l0,0l-0.7,0.5l-1,1.1c-0.1-0.1-0.1-0.1-0.2-0.2c0,0,0-0.1,0-0.1c0-0.1-0.1-0.1-0.1-0.1
					c0,0-0.1,0-0.1,0c0-0.1-0.1-0.1-0.1-0.2l1.3-0.7l0.7-0.5l-0.8,0.4l-1.2,0.8c0-0.1-0.1-0.1-0.1-0.2c0,0,0.1-0.1,0.1-0.1
					c0-0.1-0.1-0.1-0.1-0.1c0,0,0,0-0.1,0c0-0.1,0-0.1-0.1-0.2l1.4-0.3l0.8-0.3L15.6,10l-1.4,0.5c0-0.1,0-0.1,0-0.2
					c0.1,0,0.1-0.1,0.1-0.1c0-0.1-0.1-0.1-0.1-0.1c0,0,0,0,0,0c0-0.1,0-0.1,0-0.2l1.5,0.1l0.8-0.1l-0.8-0.1l-1.5,0.1
					c0-0.1,0-0.1,0-0.2c0,0,0,0,0,0c0.1,0,0.1-0.1,0.1-0.1c0-0.1,0-0.1-0.1-0.1c0-0.1,0-0.1,0-0.2l1.4,0.4l0.8,0.1l-0.8-0.3
					l-1.4-0.3c0-0.1,0-0.1,0.1-0.2c0,0,0,0,0,0c0.1,0,0.1-0.1,0.1-0.1c0-0.1,0-0.1-0.1-0.1c0-0.1,0.1-0.1,0.1-0.2l1.2,0.8l0.8,0.4
					l-0.7-0.5l-1.3-0.7c0-0.1,0.1-0.1,0.1-0.2c0,0,0,0,0.1,0c0.1,0,0.1-0.1,0.1-0.1c0,0,0-0.1,0-0.1c0-0.1,0.1-0.1,0.1-0.2l1,1.1
					l0.7,0.5L16,8.9l-1.1-1C15,7.9,15,7.8,15.1,7.8c0,0,0.1,0,0.1,0c0.1,0,0.1-0.1,0.1-0.1c0,0,0-0.1,0-0.1c0.1,0,0.1-0.1,0.2-0.1
					l0.7,1.3l0.5,0.7l-0.4-0.8l-0.8-1.2c0.1,0,0.1-0.1,0.2-0.1c0,0,0.1,0.1,0.1,0.1c0.1,0,0.1-0.1,0.1-0.1c0,0,0,0,0-0.1
					c0.1,0,0.1,0,0.2-0.1l0.3,1.4l0.3,0.8l-0.1-0.8l-0.5-1.4c0.1,0,0.1,0,0.2-0.1c0,0.1,0.1,0.1,0.1,0.1c0.1,0,0.1-0.1,0.1-0.1
					c0,0,0,0,0,0C16.6,7.1,16.7,7.1,16.8,7.1"/>
				<path clip-path="url(#SVGID_4_)" fill="#FFFFFF" d="M16.8,9.4c0.2,0,0.4,0.2,0.4,0.4c0,0.2-0.2,0.4-0.4,0.4
					c-0.2,0-0.4-0.2-0.4-0.4C16.3,9.6,16.5,9.4,16.8,9.4"/>
				<path clip-path="url(#SVGID_4_)" fill="#16007E" d="M16.8,9.5c0.2,0,0.3,0.1,0.3,0.3c0,0.2-0.2,0.3-0.3,0.3
					c-0.2,0-0.3-0.2-0.3-0.3C16.4,9.6,16.6,9.5,16.8,9.5"/>
			</g>
		</g>
	</g>
</g>
</svg>
