<?xml version="1.0" encoding="utf-8"?>
<!-- Generator: Adobe Illustrator 24.0.0, SVG Export Plug-In . SVG Version: 6.00 Build 0)  -->
<svg version="1.1" id="Layer_1" xmlns="http://www.w3.org/2000/svg" xmlns:xlink="http://www.w3.org/1999/xlink" x="0px" y="0px"
	 viewBox="0 0 77.1 19.6" enable-background="new 0 0 77.1 19.6" xml:space="preserve">
<g id="KENYA_2_">
	<g>
		<g>
			<defs>
				<rect id="SVGID_1_" width="33.6" height="19.6"/>
			</defs>
			<clipPath id="SVGID_2_">
				<use xlink:href="#SVGID_1_"  overflow="visible"/>
			</clipPath>
			<rect clip-path="url(#SVGID_2_)" fill="#FFFFFF" width="33.6" height="19.6"/>
			<rect clip-path="url(#SVGID_2_)" width="33.6" height="5.9"/>
			<rect y="13.7" clip-path="url(#SVGID_2_)" fill="#2A680B" width="33.6" height="5.9"/>
			<g clip-path="url(#SVGID_2_)">
				<defs>
					<rect id="SVGID_3_" width="33.6" height="19.6"/>
				</defs>
				<clipPath id="SVGID_4_">
					<use xlink:href="#SVGID_3_"  overflow="visible"/>
				</clipPath>
				<path clip-path="url(#SVGID_4_)" d="M13.1,15.6l0.2,0.1l5.7-9.9c0.3-0.1,0.5-0.4,0.7-0.7c0.1-0.2,0.6-1.1,0.8-2.2
					c-0.8,0.7-1.3,1.6-1.5,1.8c-0.2,0.3-0.4,0.6-0.3,1L13.1,15.6z"/>
				<g clip-path="url(#SVGID_4_)">
					<path d="M13.4,15.8l-0.2-0.1l5.7-9.9c-0.1-0.3,0.1-0.7,0.3-1c0.5-0.9,1.1-1.5,1.5-1.8c-0.1,0.5-0.3,1.3-0.8,2.2
						c-0.2,0.3-0.4,0.6-0.7,0.7L13.4,15.8L13.4,15.8z M20.6,2.9c-0.4,0.3-0.9,0.9-1.4,1.8c-0.2,0.3-0.4,0.6-0.3,1l-5.7,9.9l0.2,0.1
						l5.7-9.9c0.3-0.1,0.5-0.4,0.7-0.7C20.3,4.2,20.5,3.4,20.6,2.9L20.6,2.9z"/>
				</g>
				<path clip-path="url(#SVGID_4_)" fill="#FFFFFF" d="M13.1,15.6l0.2,0.1l5.7-9.9c0.3-0.1,0.5-0.4,0.7-0.7
					c0.1-0.2,0.6-1.1,0.8-2.2c-0.8,0.7-1.3,1.6-1.5,1.8c-0.2,0.3-0.4,0.6-0.3,1L13.1,15.6z"/>
				<path clip-path="url(#SVGID_4_)" d="M20.1,15.6l-0.2,0.1l-5.7-9.9c-0.3-0.1-0.5-0.4-0.7-0.7c-0.1-0.2-0.6-1.1-0.8-2.2
					c0.8,0.7,1.3,1.6,1.5,1.8c0.2,0.3,0.4,0.6,0.3,1L20.1,15.6z"/>
				<g clip-path="url(#SVGID_4_)">
					<path d="M19.9,15.8L19.9,15.8l-5.7-9.9c-0.3-0.1-0.5-0.4-0.7-0.7c-0.5-0.9-0.7-1.7-0.8-2.2c0.4,0.3,1,0.9,1.5,1.8
						c0.2,0.3,0.4,0.6,0.3,1l5.7,9.9L19.9,15.8L19.9,15.8z M12.7,3c0.1,0.5,0.3,1.3,0.8,2.1c0.2,0.3,0.4,0.6,0.7,0.7l5.7,9.9
						l0.2-0.1l-5.7-9.9c0.1-0.3-0.1-0.7-0.3-1C13.6,3.9,13.1,3.3,12.7,3L12.7,3z"/>
				</g>
				<path clip-path="url(#SVGID_4_)" fill="#FFFFFF" d="M20.1,15.6l-0.2,0.1l-5.7-9.9c-0.3-0.1-0.5-0.4-0.7-0.7
					c-0.1-0.2-0.6-1.1-0.8-2.2c0.8,0.7,1.3,1.6,1.5,1.8c0.2,0.3,0.4,0.6,0.3,1L20.1,15.6z"/>
				<path clip-path="url(#SVGID_4_)" fill="#AA0017" d="M0,6.9v5.9h14.3c0.4,1,1.6,2.9,2.3,2.9s2-2,2.3-2.9h14.6V6.9H19
					c-0.4-1-1.6-2.9-2.3-2.9s-2,2-2.3,2.9H0z"/>
				<path clip-path="url(#SVGID_4_)" d="M19,12.7c0.4-1,0.6-2,0.6-2.9c0-1-0.2-2-0.6-2.9c-0.4,1-0.6,2-0.6,2.9
					C18.3,10.8,18.6,11.8,19,12.7L19,12.7z"/>
				<path clip-path="url(#SVGID_4_)" d="M14.3,12.7c-0.4-1-0.6-2-0.6-2.9c0-1,0.2-2,0.6-2.9c0.4,1,0.6,2,0.6,2.9
					C14.9,10.8,14.7,11.8,14.3,12.7L14.3,12.7z"/>
				<path clip-path="url(#SVGID_4_)" fill="#FFFFFF" d="M16.6,9.1c0.3,0,0.5,0.3,0.5,0.7c0,0.4-0.2,0.7-0.5,0.7
					c-0.3,0-0.5-0.3-0.5-0.7C16.1,9.4,16.4,9.1,16.6,9.1L16.6,9.1z"/>
				<path clip-path="url(#SVGID_4_)" fill="#FFFFFF" d="M16.8,10.5c0,0,0.5,1,0.5,2.6c0,1.6-0.5,2.6-0.5,2.6V10.5z"/>
				<path clip-path="url(#SVGID_4_)" fill="#FFFFFF" d="M16.5,9.1c0,0-0.5-1-0.5-2.6c0-1.6,0.5-2.6,0.5-2.6V9.1z"/>
				<path clip-path="url(#SVGID_4_)" fill="#FFFFFF" d="M16.5,10.5c0,0-0.5,1-0.5,2.6c0,1.6,0.5,2.6,0.5,2.6V10.5z"/>
				<path clip-path="url(#SVGID_4_)" fill="#FFFFFF" d="M16.8,9.1c0,0,0.5-1,0.5-2.6c0-1.6-0.5-2.6-0.5-2.6V9.1z"/>
			</g>
		</g>
	</g>
</g>
<g id="INDIA_3_">
	<g>
		<g>
			<defs>
				<rect id="SVGID_5_" x="43.6" y="0" width="33.6" height="19.6"/>
			</defs>
			<clipPath id="SVGID_6_">
				<use xlink:href="#SVGID_5_"  overflow="visible"/>
			</clipPath>
			<rect x="43.6" y="0" clip-path="url(#SVGID_6_)" fill="#FFFFFF" width="33.6" height="19.6"/>
			<rect x="43.6" y="0" clip-path="url(#SVGID_6_)" fill="#F0953E" width="33.6" height="6.5"/>
			<rect x="43.6" y="13.1" clip-path="url(#SVGID_6_)" fill="#3B8916" width="33.6" height="6.5"/>
			<g clip-path="url(#SVGID_6_)">
				<defs>
					<rect id="SVGID_7_" x="43.6" y="0" width="33.6" height="19.6"/>
				</defs>
				<clipPath id="SVGID_8_">
					<use xlink:href="#SVGID_7_"  overflow="visible"/>
				</clipPath>
				<path clip-path="url(#SVGID_8_)" fill="#16007E" d="M60.4,6.9c-1.6,0-2.9,1.3-2.9,2.9c0,1.6,1.3,2.9,2.9,2.9
					c1.6,0,2.9-1.3,2.9-2.9C63.3,8.2,62,6.9,60.4,6.9 M60.4,7.1l-0.1,1.5l0.1,0.8l0.1-0.8L60.4,7.1c0.1,0,0.2,0,0.2,0c0,0,0,0,0,0
					c0,0.1,0.1,0.1,0.1,0.1c0.1,0,0.1-0.1,0.1-0.1c0.1,0,0.1,0,0.2,0.1l-0.5,1.4l-0.1,0.8l0.3-0.8L61,7.2c0.1,0,0.1,0,0.2,0.1
					c0,0,0,0,0,0c0,0.1,0.1,0.1,0.1,0.1c0,0,0.1,0,0.1-0.1c0.1,0,0.1,0.1,0.2,0.1l-0.8,1.2l-0.4,0.8L61,8.8l0.7-1.3
					c0.1,0,0.1,0.1,0.2,0.1c0,0,0,0,0,0.1c0,0.1,0.1,0.1,0.1,0.1c0,0,0.1,0,0.1-0.1c0.1,0.1,0.1,0.1,0.2,0.2l-1.1,1l-0.5,0.7L61.2,9
					l1-1.1C62.3,8,62.3,8,62.4,8.1c0,0,0,0.1,0,0.1c0,0.1,0.1,0.1,0.1,0.1c0,0,0.1,0,0.1,0c0,0.1,0.1,0.1,0.1,0.2l-1.3,0.7l-0.7,0.5
					l0.8-0.4l1.2-0.8c0,0.1,0.1,0.1,0.1,0.2c0,0-0.1,0.1-0.1,0.1c0,0.1,0.1,0.1,0.1,0.1c0,0,0,0,0,0c0,0.1,0,0.1,0.1,0.2l-1.4,0.3
					l-0.8,0.3l0.8-0.1l1.4-0.4c0,0.1,0,0.1,0,0.2c-0.1,0-0.1,0.1-0.1,0.1c0,0.1,0.1,0.1,0.1,0.1c0,0,0,0,0,0c0,0.1,0,0.1,0,0.2
					l-1.5-0.1l-0.8,0.1l0.8,0.1L63,9.8c0,0.1,0,0.2,0,0.2c0,0,0,0,0,0c-0.1,0-0.1,0.1-0.1,0.1s0,0.1,0.1,0.1c0,0.1,0,0.1,0,0.2
					l-0.5-0.2L61.5,10l-0.8-0.1h0h0l0.8,0.3l1.4,0.3c0,0.1,0,0.1-0.1,0.2c0,0,0,0,0,0l0,0c0,0,0,0,0,0c-0.1,0-0.1,0.1-0.1,0.1
					c0,0,0,0,0,0l0,0c0,0,0,0,0,0l0,0c0,0,0,0,0,0l0,0c0,0,0,0,0,0l0,0c0,0,0,0,0,0c0,0.1-0.1,0.1-0.1,0.2l-1.2-0.8h0L60.6,10h0
					l0.4,0.3l0.3,0.2l0,0l1.3,0.7c0,0.1-0.1,0.1-0.1,0.2c0,0,0,0-0.1,0c-0.1,0-0.1,0.1-0.1,0.1c0,0,0,0.1,0,0.1
					c0,0.1-0.1,0.1-0.1,0.2l-1-1.1L60.6,10l0.5,0.7l1.1,1c-0.1,0.1-0.1,0.1-0.2,0.1c0,0,0,0-0.1,0c-0.1,0-0.1,0.1-0.1,0.1
					c0,0,0,0,0,0.1c-0.1,0-0.1,0.1-0.2,0.1L61,10.8l-0.5-0.7l0,0l0.4,0.8l0.8,1.2c-0.1,0-0.1,0.1-0.2,0.1c0,0-0.1-0.1-0.1-0.1
					c-0.1,0-0.1,0.1-0.1,0.1c0,0,0,0,0,0c-0.1,0-0.1,0-0.2,0.1l-0.3-1.4l-0.3-0.8v0l0.1,0.8l0.5,1.4c-0.1,0-0.1,0-0.2,0
					c0-0.1-0.1-0.1-0.1-0.1c-0.1,0-0.1,0.1-0.1,0.1c0,0,0,0,0,0c-0.1,0-0.1,0-0.2,0l0.1-1.5l-0.1-0.8L60.3,11l0.1,1.5
					c-0.1,0-0.2,0-0.2,0c0,0,0,0,0,0c0-0.1-0.1-0.1-0.1-0.1c-0.1,0-0.1,0-0.1,0.1c-0.1,0-0.1,0-0.2,0l0.5-1.4l0.1-0.8L60,10.9
					l-0.3,1.4c-0.1,0-0.1,0-0.2-0.1c0,0,0,0,0,0c0-0.1-0.1-0.1-0.1-0.1c-0.1,0-0.1,0-0.1,0.1c-0.1,0-0.1-0.1-0.2-0.1l0.8-1.2
					l0.4-0.8l-0.5,0.7L59,12.1C59,12,58.9,12,58.8,12c0,0,0,0,0-0.1c0-0.1-0.1-0.1-0.1-0.1c0,0-0.1,0-0.1,0
					c-0.1-0.1-0.1-0.1-0.2-0.1l1.1-1l0.5-0.7l0,0l-0.7,0.5l-1,1.1c-0.1-0.1-0.1-0.1-0.2-0.2c0,0,0-0.1,0-0.1c0-0.1-0.1-0.1-0.1-0.1
					c0,0-0.1,0-0.1,0c0-0.1-0.1-0.1-0.1-0.2l1.3-0.7l0.7-0.5l-0.8,0.4l-1.2,0.8c0-0.1-0.1-0.1-0.1-0.2c0,0,0.1-0.1,0.1-0.1
					c0-0.1-0.1-0.1-0.1-0.1c0,0,0,0-0.1,0c0-0.1,0-0.1-0.1-0.2l1.4-0.3L60,9.9L59.2,10l-1.4,0.5c0-0.1,0-0.1,0-0.2
					c0.1,0,0.1-0.1,0.1-0.1c0-0.1-0.1-0.1-0.1-0.1c0,0,0,0,0,0c0-0.1,0-0.1,0-0.2l1.5,0.1L60,9.8l-0.8-0.1l-1.5,0.1
					c0-0.1,0-0.1,0-0.2c0,0,0,0,0,0c0.1,0,0.1-0.1,0.1-0.1c0-0.1,0-0.1-0.1-0.1c0-0.1,0-0.1,0-0.2l1.4,0.4L60,9.7l-0.8-0.3l-1.4-0.3
					c0-0.1,0-0.1,0.1-0.2c0,0,0,0,0,0C58,8.9,58,8.8,58,8.8c0-0.1,0-0.1-0.1-0.1c0-0.1,0.1-0.1,0.1-0.2l1.2,0.8l0.8,0.4l-0.7-0.5
					l-1.3-0.7c0-0.1,0.1-0.1,0.1-0.2c0,0,0,0,0.1,0c0.1,0,0.1-0.1,0.1-0.1c0,0,0-0.1,0-0.1c0-0.1,0.1-0.1,0.1-0.2l1,1.1l0.7,0.5
					l-0.5-0.7l-1.1-1c0.1-0.1,0.1-0.1,0.2-0.1c0,0,0.1,0,0.1,0c0.1,0,0.1-0.1,0.1-0.1c0,0,0-0.1,0-0.1c0.1,0,0.1-0.1,0.2-0.1
					l0.7,1.3l0.5,0.7l-0.4-0.8L59,7.5c0.1,0,0.1-0.1,0.2-0.1c0,0,0.1,0.1,0.1,0.1c0.1,0,0.1-0.1,0.1-0.1c0,0,0,0,0-0.1
					c0.1,0,0.1,0,0.2-0.1L60,8.7l0.3,0.8l-0.1-0.8l-0.5-1.4c0.1,0,0.1,0,0.2-0.1c0,0.1,0.1,0.1,0.1,0.1c0.1,0,0.1-0.1,0.1-0.1
					c0,0,0,0,0,0C60.2,7.1,60.3,7.1,60.4,7.1"/>
				<path clip-path="url(#SVGID_8_)" fill="#FFFFFF" d="M60.4,9.4c0.2,0,0.4,0.2,0.4,0.4c0,0.2-0.2,0.4-0.4,0.4
					c-0.2,0-0.4-0.2-0.4-0.4C59.9,9.6,60.1,9.4,60.4,9.4"/>
				<path clip-path="url(#SVGID_8_)" fill="#16007E" d="M60.4,9.5c0.2,0,0.3,0.1,0.3,0.3c0,0.2-0.2,0.3-0.3,0.3
					c-0.2,0-0.3-0.2-0.3-0.3C60,9.6,60.2,9.5,60.4,9.5"/>
			</g>
		</g>
	</g>
</g>
</svg>
