<?xml version="1.0" encoding="utf-8"?>
<!-- Generator: Adobe Illustrator 24.0.0, SVG Export Plug-In . SVG Version: 6.00 Build 0)  -->
<svg version="1.1" id="Layer_1" xmlns="http://www.w3.org/2000/svg" xmlns:xlink="http://www.w3.org/1999/xlink" x="0px" y="0px"
	 viewBox="0 0 122.3 112.3" enable-background="new 0 0 122.3 112.3" xml:space="preserve">
<g>
	<path fill="#5BBC89" d="M7.5,87.8c2.4,0,4.2,1.2,5,2.7l0.3-2.4h4.3v15.3h-4.3l-0.3-2.4c-0.7,1.5-2.5,2.7-5,2.7
		c-4.4,0-7.5-3.6-7.5-8C0,91.4,3.1,87.8,7.5,87.8z M8.3,99.5c2.2,0,3.6-1.7,3.6-3.6c0-2-1.4-3.7-3.6-3.7c-2.2,0-3.7,1.7-3.7,3.7
		C4.6,97.8,6.1,99.5,8.3,99.5z M49.5,88.5l-0.6,4c-0.3-0.2-1-0.4-1.5-0.4c-1.7,0-2.8,1.6-2.8,5.2v6.2H40V88.2h4.3l0.2,1.5
		c0.9-1.1,2-1.8,3.2-1.8C48.5,87.8,49.2,88.2,49.5,88.5z M50,95.8c0-4.4,3.4-8,8.3-8c4.9,0,8.2,3.6,8.2,8c0,4.4-3.3,8-8.2,8
		C53.3,103.8,50,100.2,50,95.8z M61.9,95.8c0-2-1.4-3.7-3.6-3.7c-2.2,0-3.7,1.7-3.7,3.7c0,2,1.5,3.6,3.7,3.6
		C60.5,99.5,61.9,97.8,61.9,95.8z M36.5,103.6L36.5,103.6l0-15.3h-4.3l-0.3,2.4c-0.7-1.5-2.5-2.7-5-2.7c-4.4,0-7.5,3.6-7.5,8
		c0,4.4,3.1,8,7.5,8c2.2,0,3.9-1,4.8-2.3c0,0.9,0,2,0,2.4c0,2-1.5,3.7-3.7,3.7c-1.1,0-2-0.4-2.7-1l-3.7,2.8c1.5,1.6,3.7,2.6,6.4,2.6
		c5.1,0,8.5-3.7,8.5-8.2C36.5,103.9,36.5,103.8,36.5,103.6z M27.8,99.6c-2.2,0-3.7-1.7-3.7-3.6c0-2,1.5-3.7,3.7-3.7
		c2.2,0,3.6,1.7,3.6,3.7C31.4,97.9,30,99.6,27.8,99.6z"/>
	<path fill="#233F45" d="M84.6,94.4v9.1H80v-6.9c0-3.4-1-4.4-2.8-4.4c-1.8,0-3.5,1.2-3.6,3.8v7.5h-4.6V80.8h4.6v9.4
		c1.5-1.3,3.4-2.3,5.5-2.3C82.8,87.8,84.6,90.3,84.6,94.4z M102.5,88.2v15.3h-4.3l-0.2-2c-1.5,1.3-3.4,2.3-5.5,2.3
		c-3.8,0-5.6-2.4-5.6-6.5v-9.1h4.6v6.9c0,3.4,1,4.4,2.8,4.4c1.9,0,3.6-1.3,3.6-4.2v-7.2H102.5z M114.8,103.8c-2.5,0-4.3-1.2-5-2.7
		l-0.3,2.4h-4.3V80.8h4.6v9.8c0.7-1.5,2.5-2.7,5-2.7c4.4,0,7.5,3.6,7.5,8C122.3,100.2,119.2,103.8,114.8,103.8z M114,92.2
		c-2.2,0-3.7,1.7-3.7,3.7c0,2,1.4,3.6,3.7,3.6c2.2,0,3.7-1.7,3.7-3.6C117.7,93.8,116.2,92.2,114,92.2z"/>
	<g>
		<path fill="#00A9C2" d="M9.4,83.3H6.3L5.7,85H4.3l2.8-7.7h1.5l2.8,7.7H10L9.4,83.3z M8.9,82l-1.1-3l-1.1,3H8.9z"/>
		<path fill="#00A9C2" d="M13.3,85H12v-8.1h1.3V85z"/>
		<path fill="#00A9C2" d="M17.6,80.7h-1.2V85H15v-4.2h-0.9v-1.3H15v-1.6h1.3v1.6h1.2V80.7z"/>
		<path fill="#00A9C2" d="M23.5,82.6h-4.2c0,0.7,0.5,1.3,1.5,1.3c0.7,0,1.1-0.4,1.4-0.7l1.2,0.1c-0.2,0.7-1,1.8-2.5,1.8
			c-1.7,0-2.8-1.3-2.8-2.9c0-1.5,1.1-2.8,2.7-2.8c1.7,0,2.7,1.3,2.7,2.9V82.6z M19.3,81.7h2.8c0-0.6-0.6-1.2-1.4-1.2
			C19.9,80.6,19.4,81.1,19.3,81.7z"/>
		<path fill="#00A9C2" d="M27.6,79.6l-0.2,1.2c-0.1-0.1-0.3-0.1-0.5-0.1c-0.7,0-1.1,0.7-1.1,1.9V85h-1.3v-5.5h1.3l0.1,0.6
			c0.3-0.4,0.7-0.7,1.2-0.7C27.2,79.4,27.4,79.5,27.6,79.6z"/>
		<path fill="#00A9C2" d="M33.7,81.7V85h-1.3v-2.6c0-1.3-0.5-1.7-1.2-1.7c-0.9,0-1.5,0.7-1.5,1.6V85h-1.3v-5.5h1.3l0.1,0.8
			c0.5-0.5,1.2-0.9,2.1-0.9C33,79.4,33.7,80.2,33.7,81.7z"/>
		<path fill="#00A9C2" d="M37.2,79.4c0.9,0,1.7,0.5,2,1.1l0.1-1h1.3V85h-1.3l-0.1-1c-0.3,0.6-1,1.1-2,1.1c-1.6,0-2.7-1.3-2.7-2.9
			C34.5,80.7,35.7,79.4,37.2,79.4z M37.5,83.8c0.9,0,1.6-0.7,1.6-1.6c0-0.9-0.7-1.6-1.6-1.6c-0.9,0-1.6,0.7-1.6,1.6
			C35.9,83.1,36.5,83.8,37.5,83.8z"/>
		<path fill="#00A9C2" d="M44.9,80.7h-1.2V85h-1.3v-4.2h-0.9v-1.3h0.9v-1.6h1.3v1.6h1.2V80.7z"/>
		<path fill="#00A9C2" d="M45.7,78c0-0.4,0.3-0.7,0.7-0.7S47,77.6,47,78c0,0.4-0.3,0.7-0.7,0.7S45.7,78.4,45.7,78z M47,85h-1.3v-5.5
			H47V85z"/>
		<path fill="#00A9C2" d="M54,79.5L51.7,85h-1.5l-2.3-5.5h1.5l1.6,4.1l1.6-4.1H54z"/>
		<path fill="#00A9C2" d="M59.7,82.6h-4.2c0,0.7,0.5,1.3,1.5,1.3c0.7,0,1.1-0.4,1.4-0.7l1.2,0.1c-0.2,0.7-1,1.8-2.5,1.8
			c-1.7,0-2.8-1.3-2.8-2.9c0-1.5,1.1-2.8,2.7-2.8c1.7,0,2.7,1.3,2.7,2.9V82.6z M55.5,81.7h2.8c0-0.6-0.6-1.2-1.4-1.2
			C56.1,80.6,55.6,81.1,55.5,81.7z"/>
		<path fill="#00A9C2" d="M61.6,83.3c0.1,0.4,0.5,0.7,1.2,0.7c0.5,0,0.9-0.2,0.9-0.5c0-0.4-0.4-0.5-1.5-0.9
			c-0.9-0.3-1.6-0.7-1.6-1.6c0-1,1-1.6,2-1.6c1.4,0,2.2,0.8,2.2,1.7h-1.3c0-0.4-0.5-0.6-0.8-0.6c-0.3,0-0.7,0.2-0.7,0.5
			c0,0.3,0.4,0.4,1.6,0.8c1.2,0.4,1.6,1,1.6,1.7c0,1-1,1.6-2.2,1.6c-1.4,0-2.4-0.6-2.5-1.8H61.6z"/>
	</g>
	<g>
		<path fill="#F1CE54" d="M37.4,8.6c0.7,0.3,1.4,0.7,2,1c0.1-0.2,0.1-0.4,0.2-0.5c1.1-2.5,4-3.5,6.5-2.4c2.5,1.1,3.5,4,2.4,6.5
			c-0.1,0.3-0.3,0.6-0.5,0.9c1.4,0.8,2.7,1.9,4,3.1l1.3,0.2c0.3,0,0.7-0.1,0.8-0.4c0.2-0.3,0.3-0.6,0.5-0.9c0.1-0.3,0.2-0.6,0.4-1
			c0.1-0.3,0-0.7-0.2-0.9L53,12.5l0-0.1c0.1-0.6,0.1-1.2,0.1-1.8l0-0.1l1.9-1.5c0.3-0.2,0.4-0.5,0.3-0.9c-0.2-0.7-0.4-1.3-0.7-1.9
			c-0.1-0.2-0.2-0.3-0.4-0.4c-0.1-0.1-0.2-0.1-0.4-0.1l-2.4,0.1l-0.1-0.1c-0.4-0.5-0.8-0.9-1.2-1.3l-0.1-0.1l0.3-2.4
			c0-0.3-0.1-0.6-0.4-0.8c-0.3-0.2-0.6-0.3-0.9-0.5c-0.3-0.1-0.6-0.2-1-0.4c-0.3-0.1-0.7,0-0.9,0.2l-1.6,1.8l-0.1,0
			c-0.6-0.1-1.2-0.1-1.8-0.1l-0.1,0l-1.5-1.9c-0.1-0.1-0.2-0.2-0.3-0.2C41.4,0,41.3,0,41.1,0c-0.7,0.2-1.3,0.4-1.9,0.7
			c-0.3,0.1-0.5,0.5-0.5,0.8l0.1,2.4L38.7,4c-0.5,0.4-0.9,0.8-1.3,1.2l-0.1,0.1L34.9,5c-0.3,0-0.6,0.1-0.8,0.4
			c-0.2,0.3-0.3,0.5-0.4,0.8C35,7.2,36.2,8,37.4,8.6z"/>
		<g>
			<path fill="#5BBC89" d="M37.6,52.3c1.7-0.5,3.5-1,5.2-1.4C38,48.4,31,46.4,25.8,46.6c-1.1,0-2.2,0.1-3.2,0.2
				c-0.7,0.1-1.4,0.2-2.1,0.3c-0.2,0-0.2,0.2-0.1,0.4c0.1,0.3,0.4,0.3,0.6,0.3c1.6-0.1,3.2,0,4.9,0.2C30.4,48.6,34.4,50.3,37.6,52.3
				z"/>
			<path fill="#5BBC89" d="M30.4,54.5c0.9-0.4,1.9-0.7,2.9-1.1c-2.1-1.4-4.2-2.5-6.2-3.1c-1-0.3-2.1-0.7-3.1-1
				c-0.7-0.2-1.4-0.3-2.1-0.4c-0.2,0-0.2,0.1-0.2,0.3c0,0.4,0.3,0.5,0.5,0.5c1.5,0.5,3.1,1.2,4.6,2C28.3,52.6,29.4,53.5,30.4,54.5z"
				/>
		</g>
		<path fill="#F16529" d="M78.9,52.4h-4c-1.1,0-2.1-0.5-2.1-2.3v-3.9c0-0.6-0.5-1-1-1h-1.4c-0.6,0-1,0.5-1,1v4
			c0,1.1-0.5,2.1-2.3,2.1h-3.9c-0.6,0-1,0.5-1,1v1.4c0,0.6,0.5,1,1,1h4c1.1,0,2.1,0.5,2.1,2.3V62c0,0.6,0.5,1,1,1h1.4
			c0.6,0,1-0.5,1-1v-4c0-1.1,0.5-2.1,2.3-2.1h3.9c0.6,0,1-0.5,1-1v-1.4C79.9,52.9,79.5,52.4,78.9,52.4z"/>
		<path fill="#5BBC89" d="M54.4,56c2-0.2,2.1-0.1,3.8-0.1c0.6,0,1-0.5,1-1v-1.4c0-0.6-0.5-1-1-1h-2.8c0,0,0,0,0,0
			c-8.2,0.2-18,2.9-25.7,6.5c2.8,1.5,5.8,2.5,8.9,3.2C43.1,59.5,49,56.5,54.4,56z"/>
		<path fill="#233F45" d="M78.6,22.5c-1,0-16.6,0-17.5,0c-0.5,0-0.8,0.2-1,0.7c-0.1,0.4,0,0.8,0.4,1.1c0.7,0.5,1.3,1,2,1.4
			c0.5,0.4,1,0.8,1.5,1.1c0.3,0.2,0.5,0.4,0.8,0.6c-2.9,1.8-6.1,5.3-9.1,9.5c0.2-1.8,0.2-3.6-0.1-5.5c-0.4-2.7-1.3-5.2-2.7-7.5
			c-0.9-1.4-1.9-2.7-3.1-3.8c-1.5-1.4-3.1-2.7-5-3.6c-0.9-0.5-1.9-0.9-2.8-1.4c-2.1-1-4.2-2.1-6.3-3.1c-2.1-1.1-4-2.4-5.9-4
			c-1.5-1.2-2.8-2.6-4-4.1c-0.7-0.8-1.3-1.6-1.9-2.5c0,0.1-0.1,0.2-0.1,0.3c-0.6,2.2-1,4.4-1.3,6.6c-0.2,1.5-0.3,3-0.4,4.6
			c0,2,0,4,0.2,6c0.3,2.4,0.8,4.8,1.5,7.1c1,2.9,2.3,5.5,4.2,7.9c1.4,1.8,3,3.4,4.7,4.8c2,1.7,4.2,3,6.6,4c1.7,0.7,3.4,1.2,5.1,1.4
			c0.9,0.1,1.8,0.1,2.7,0.1c0.1,0,0.3-0.2,0.3-0.3c0.1-0.6,0.3-1.1,0.3-1.7c0.1-1.8,0-3.9-0.6-5.6c-0.9-2.5-2.1-4.9-3.5-7
			c-1.4-2.1-3.9-5.4-8.5-8.2c-0.8-0.5-1.4-0.8-2.2-1.2c-0.3-0.1-0.4,0.1-0.5,0.5c-0.2,0.6,0,0.8,0.2,1c1.5,1.6,1.9,1.7,3.2,3.6
			c0.2,0.3,1.1,1.5,1.5,2.2c0.7,1,1.3,2.2,1.9,3.4c0.5,1.1,1,2.2,1.4,3.4c0.3,1,0.7,1.9,1,2.9c0,0.1,0.1,0.2,0.1,0.3
			c0,0.1,0,0.2,0,0.2c0,0.1-0.2,0.2-0.3,0.1c-0.6-0.1-1.3-0.3-1.9-0.5c-1.2-0.4-2.4-1-3.5-1.7c-1.6-1-2.9-2.4-4.2-3.8
			c-1-1.3-2-2.6-2.7-4.1c-1-1.9-1.6-4-2-6.2c-0.3-1.7-0.3-3.5-0.2-5.3c0.1-1.3,0.3-2.7,0.5-4c1.4,1,2.8,2,4.3,2.7c2,1,3.9,2,5.9,2.9
			c0.9,0.4,1.8,0.9,2.7,1.3c1.3,0.6,1.9,1.2,3,2.1c0.4,0.3,1.2,1,1.5,1.4c2.1,2.4,3.8,5.2,5,8.6c0.1,0.3,0.2,0.5,0.3,0.8
			c0.3,1.1,0.5,3,0.7,4.1c0.1,0.8,0.3,3.1,0.2,4.8l0,0c0,0.8-0.1,1.6-0.2,2.4c-0.2,1.5-0.7,3-1.2,4.3c0,0,0,0,0,0
			c-0.3,0.7-0.6,1.4-0.8,2c1.4-0.3,2.8-0.4,4.2-0.6c4.8-7.4,11.2-12.2,16-13.9c0,0.5,0.1,1.1,0.1,1.6c0.1,1.2,0.1,2.4,0.2,3.6
			c0,0.3,0.1,0.6,0.4,0.8c0.5,0.3,1.1,0.2,1.4-0.4c0.1-0.3,0.2-0.6,0.4-0.8c0.3-0.7,0.7-1.3,1-2c0.3-0.6,0.6-1.2,0.9-1.9
			c0.3-0.7,0.6-1.3,1-2c0.3-0.6,0.6-1.3,0.9-1.9c0.3-0.6,0.6-1.3,0.9-1.9c0.3-0.7,0.6-1.3,1-2c0.3-0.5,0.5-1.1,0.8-1.6
			c0.3-0.6,0.6-1.2,0.9-1.8c0.2-0.4,0.4-0.7,0.5-1.1C79.7,23.3,79.2,22.5,78.6,22.5z M70.8,28l-4.4-3h8.8L70.8,28z"/>
	</g>
</g>
</svg>
